<?xml version="1.0" encoding="utf-8" ?>
<svg baseProfile="full" height="200mm" version="1.1" viewBox="0,0,200,200" width="200mm" xmlns="http://www.w3.org/2000/svg" xmlns:ev="http://www.w3.org/2001/xml-events" xmlns:xlink="http://www.w3.org/1999/xlink"><defs /><rect fill="#1a1a1a" height="200" width="200" x="0" y="0" /><text alignment-baseline="middle" fill="#e1ed5e" style="dominant-baseline: central; font-size:9.0px; font-family:Arial;" text-anchor="middle" x="100.0" y="100.0">2021</text><line stroke="#e1ed5e" stroke-width="0.3" x1="100.0" x2="100.0" y1="15.0" y2="10.0" /><path d="M 100.0 14.0 a86.0,86.0 0 0,1 42.46469731375804,11.215312516191453" fill="none" id="id85" stroke="none" /><text fill="#e1ed5e" style="font-size:6.75px; font-family:Arial;" text-anchor="middle"><textPath startOffset="22.20632615414155" xlink:href="#id85">January</textPath></text><line stroke="#e1ed5e" stroke-width="0.3" x1="143.23703022742887" x2="145.7803849466894" y1="26.818313649435467" y2="22.513508569990506" /><path d="M 143.74570117128098 25.957352633546478 a86.0,86.0 0 0,1 28.547481713284135,27.462654790039114" fill="none" id="id86" stroke="none" /><text fill="#e1ed5e" style="font-size:6.75px; font-family:Arial;" text-anchor="middle"><textPath startOffset="19.985693538727396" xlink:href="#id86">February</textPath></text><path d="M 116.82858285166822 87.43820079747576 l 5.276670106040801 -3.9388028638119175 a27.584634796855298,27.584634796855298 0 0,0 0.28075560839264596,0.38295033432806724 l -5.343688326947074 3.847390085812354" fill="#ff0000" stroke="none" /><line stroke="#e1ed5e" stroke-width="0.3" x1="172.23445277983987" x2="176.4835382374775" y1="55.19839476539836" y2="52.563006222186495" /><path d="M 173.08426987136738 54.67131705675599 a86.0,86.0 0 0,1 12.851231095245387,41.99856678651699" fill="none" id="id87" stroke="none" /><text fill="#e1ed5e" style="font-size:6.75px; font-family:Arial;" text-anchor="middle"><textPath startOffset="22.20632615414155" xlink:href="#id87">March</textPath></text><path d="M 119.97218684219823 93.5106431181261 l 16.14841176172413 -5.246937044263297 a37.97944494889785,37.97944494889785 0 0,0 0.19666935084380677,0.6234955869214053 l -16.236336596336145 4.968191290915472" fill="#ff9f0e" stroke="none" /><path d="M 120.28053869075195 94.5502522615342 l 11.10262240967465 -2.983475552143762 a32.49649297577523,32.49649297577523 0 0,0 0.14051432207387304,0.5414590023500204 l -11.152333063618826 2.791920124244891" fill="#ff4d07" stroke="none" /><path d="M 120.6074358757038 95.95851677861258 l 6.660434941378027 -1.3062292769018522 a27.78731379355374,27.78731379355374 0 0,0 0.08801205054608613,0.47016389329888314 l -6.681932715833972 1.1913873061404057" fill="#ff0300" stroke="none" /><path d="M 120.94382443527127 98.46500227214037 l 14.851525615613742 -1.0884859231738 a35.89136040515368,35.89136040515368 0 0,0 0.03985549108074789,0.6165468065612713 l -14.868061697698906 0.8326800523594935" fill="#ff800b" stroke="none" /><line stroke="#e1ed5e" stroke-width="0.3" x1="184.98032266829074" x2="189.97916517819016" y1="98.17113171792111" y2="98.06355123074" /><path d="M 185.9800911702706 98.14961562048488 a86.0,86.0 0 0,1 -9.607161424134198,41.387399972396054" fill="none" id="id88" stroke="none" /><text fill="#e1ed5e" style="font-size:6.75px; font-family:Arial;" text-anchor="middle"><textPath startOffset="21.466115282336823" xlink:href="#id88">April</textPath></text><line stroke="#e1ed5e" stroke-width="0.3" x1="174.80103733775053" x2="179.2010983576182" y1="140.37084112569926" y2="142.7455964860345" /><path d="M 175.68104954172406 140.8457921977663 a86.0,86.0 0 0,1 -30.038265399797805,32.042727171017184" fill="none" id="id89" stroke="none" /><text fill="#e1ed5e" style="font-size:6.75px; font-family:Arial;" text-anchor="middle"><textPath startOffset="22.206326154141568" xlink:href="#id89">May</textPath></text><path d="M 115.07121518719521 114.62390073753431 l 16.72222682828059 16.225910267347132 a44.300494288758514,44.300494288758514 0 0,0 -0.5357393256811395,0.542701108435162 l -16.440446877543913 -16.511351869762958" fill="#fff717" stroke="none" /><line stroke="#e1ed5e" stroke-width="0.3" x1="143.8653032363475" x2="146.44561519142675" y1="172.8068346515853" y2="177.08958963109032" /><path d="M 144.38136562736335 173.6633856474863 a86.0,86.0 0 0,1 -40.68145358897372,12.25698825130547" fill="none" id="id90" stroke="none" /><text fill="#e1ed5e" style="font-size:6.75px; font-family:Arial;" text-anchor="middle"><textPath startOffset="21.466115282336833" xlink:href="#id90">June</textPath></text><line stroke="#e1ed5e" stroke-width="0.3" x1="102.19456741930631" x2="102.32365962044197" y1="184.97166512339345" y2="189.96999836594603" /><path d="M 102.22038585953345 185.97133177190398 a86.0,86.0 0 0,1 -42.740103519485714,-10.115201625700543" fill="none" id="id91" stroke="none" /><text fill="#e1ed5e" style="font-size:6.75px; font-family:Arial;" text-anchor="middle"><textPath startOffset="22.20632615414155" xlink:href="#id91">July</textPath></text><path d="M 95.86986931433489 120.58985236759428 l -5.033085746429136 25.091334962377992 a46.59115164124429,46.59115164124429 0 0,0 -0.7849689177385925,-0.1644978688219552 l 5.464246125597116 -25.000981112829493" fill="#e9ff1a" stroke="none" /><path d="M 91.07499286063937 119.00905698771935 l -3.993517984864669 8.505652686930272 a30.39650538903276,30.39650538903276 0 0,0 -0.4717064782546739,-0.2264477751177229 l 4.139337131119585 -8.435650635312987" fill="#ff2d04" stroke="none" /><path d="M 90.42595943632237 118.69057910512821 l -16.497997842385153 32.207627667590174 a57.18722444152722,57.18722444152722 0 0,0 -0.8722661070419198,-0.45632840136217195 l 17.04995485195357 -31.918869847283283" fill="#67ff28" stroke="none" /><path d="M 90.10565033884886 118.52300852407294 l -9.054924390866091 16.95153773829082 a40.21838410004857,40.21838410004857 0 0,0 -0.6078284598504925,-0.3314365399823715 l 9.345375662585225 -16.793160546548684" fill="#ffbe11" stroke="none" /><line stroke="#e1ed5e" stroke-width="0.3" x1="58.666819895761336" x2="56.23545636021788" y1="174.27360380694188" y2="178.64263932499728" /><path d="M 58.180547188652646 175.14741091055294 a86.0,86.0 0 0,1 -31.652253787137756,-30.449443065178592" fill="none" id="id92" stroke="none" /><text fill="#e1ed5e" style="font-size:6.75px; font-family:Arial;" text-anchor="middle"><textPath startOffset="22.20632615414155" xlink:href="#id92">August</textPath></text><path d="M 82.24976979558568 111.22182372390057 l -11.264520579076324 7.121511260243159 a34.32686559196138,34.32686559196138 0 0,0 -0.31145150974447655,-0.5021590020277151 l 11.385436728488756 -6.92655592685018" fill="#ff6909" stroke="none" /><line stroke="#e1ed5e" stroke-width="0.3" x1="26.63291911575756" x2="22.317208475507996" y1="142.92168965132927" y2="145.44649492493687" /><path d="M 25.769776987707644 143.4266507060508 a86.0,86.0 0 0,1 -11.730757126820373,-40.83630448921669" fill="none" id="id93" stroke="none" /><text fill="#e1ed5e" style="font-size:6.75px; font-family:Arial;" text-anchor="middle"><textPath startOffset="21.46611528233685" xlink:href="#id93">September</textPath></text><path d="M 81.87401531095188 110.60418214915194 l -28.88154043492271 16.896467738112193 a54.46093244246403,54.46093244246403 0 0,0 -0.4664138089265426,-0.8132317900003875 l 29.16810624000163 -16.3968161022535" fill="#87ff25" stroke="none" /><path d="M 81.51974371655577 109.97397251340807 l -12.758246643923433 6.885748736059028 a35.4978064921326,35.4978064921326 0 0,0 -0.28558406525543606,-0.5402174262982766 l 12.874883217403756 -6.665116294674625" fill="#ff7a0b" stroke="none" /><path d="M 81.35079622478065 109.6543875284942 l -24.26117316372854 12.559612219465057 a48.31937741574207,48.31937741574207 0 0,0 -0.3760198539228567,-0.741922844802592 l 24.47377168743766 -12.140135162959782" fill="#d3ff1c" stroke="none" /><path d="M 81.18737489456691 109.33194174019688 l -35.13772449272887 17.429954406232035 a60.22324557109273,60.22324557109273 0 0,0 -0.45266872330900176,-0.932631646063529 l 35.43254647265259 -16.82253380420322" fill="#45ff2d" stroke="none" /><path d="M 80.73074385275274 108.34839909993369 l -21.697615116915383 9.400484851546333 a44.646471559324596,44.646471559324596 0 0,0 -0.29944817677887403,-0.7078070343438304 l 21.856214274886565 -9.025603291536342" fill="#fffb17" stroke="none" /><path d="M 80.45479744820244 107.68017299344265 l -25.842222467929993 10.154550128746525 a48.7657225801745,48.7657225801745 0 0,0 -0.3002708042558354,-0.7839123185437639 l 26.01318755177934 -9.708214243369603" fill="#cdff1d" stroke="none" /><path d="M 80.20201598880116 107.00284435728193 l -17.844593837689345 6.311900908373538 a39.92801157832558,39.92801157832558 0 0,0 -0.22361429827695356,-0.6499278223256351 l 17.950598966909528 -6.003800382958607" fill="#ffba11" stroke="none" /><path d="M 80.0844068197444 106.66101706037122 l -24.695383240265183 8.259677107629127 a47.04005029384281,47.04005029384281 0 0,0 -0.2502256252575048,-0.7701152874344074 l 24.833901116538936 -7.833362920216914" fill="#e3ff1b" stroke="none" /><path d="M 79.97269907076064 106.31721596034903 l -13.393442529749574 4.224696538584691 a35.04394402014029,35.04394402014029 0 0,0 -0.1765100506249872,-0.5768450582456407 l 13.464179352880691 -3.993524507787003" fill="#ff730a" stroke="none" /><path d="M 79.29508885075956 103.50808413554451 l -8.920384868612864 1.5114027978661522 a30.04751925234619,30.04751925234619 0 0,0 -0.08201290901618209,-0.5106944627312084 l 8.945079531990338 -1.3576291054417293" fill="#ff2703" stroke="none" /><path d="M 79.23777060512086 103.15116336523772 l -30.131064211949575 4.573107439210704 a51.476127414669875,51.476127414669875 0 0,0 -0.12542023376962133,-0.8771888228692133 l 30.205318496735796 -4.05377314436109" fill="#abff21" stroke="none" /><path d="M 79.10278846688536 102.07522291339032 l -42.069422097468305 4.177754938806557 a63.276351686772564,63.276351686772564 0 0,0 -0.09830554856641523,-1.0847935367611652 l 42.135102242311795 -3.4529800134968256" fill="#31ff3d" stroke="none" /><path d="M 79.0235259727143 100.99374915477108 l -14.93266078625135 0.7074267589261128 a35.94940837546736,35.94940837546736 0 0,0 -0.023962621072272337,-0.618368774362114 l 14.942625540174825 -0.45028073755000186" fill="#ff810b" stroke="none" /><line stroke="#e1ed5e" stroke-width="0.3" x1="15.007084014347285" x2="10.007500721073583" y1="101.09737516637583" y2="101.16192664675087" /><path d="M 14.007167355692545 101.11028546245083 a86.0,86.0 0 0,1 10.666146001902526,-42.60595125391555" fill="none" id="id94" stroke="none" /><text fill="#e1ed5e" style="font-size:6.75px; font-family:Arial;" text-anchor="middle"><textPath startOffset="22.20632615414155" xlink:href="#id94">October</textPath></text><path d="M 79.00019446554 99.90962569577889 l -59.206009897892706 -0.25479769045720374 a80.2065581662406,80.2065581662406 0 0,0 0.017824925527351355,-1.3805601258504636 l 59.192851965247634 1.2738940743681393" fill="#48f9ff" stroke="none" /><path d="M 79.03285615573316 98.82574320788736 l -32.45315207003399 -1.817526246147355 a53.504007151983366,53.504007151983366 0 0,0 0.05941342027047155,-0.9190993145819057 l 32.4170580587591 2.3758846249822727" fill="#92ff23" stroke="none" /><path d="M 79.3925641242962 95.95851677861259 l -15.165279736655387 -2.9741799985703463 a36.454172774849724,36.454172774849724 0 0,0 0.12606322351171537,-0.614729048285696 l 15.111837217228679 3.2347847030194448" fill="#ff880c" stroke="none" /><path d="M 79.71946130924805 94.55025226153421 l -29.89466967326611 -8.0332387087112 a51.95519664006082,51.95519664006082 0 0,0 0.2395214463135262,-0.8616860818275865 l 29.751961456386226 8.54663609395773" fill="#a5ff21" stroke="none" /><path d="M 80.52162464483688 92.15188598940014 l -12.638778985891278 -5.092343515690385 a34.62610350525787,34.62610350525787 0 0,0 0.2275072072075832,-0.550926747962971 l 12.549250091797493 5.309144834106668" fill="#ff6d0a" stroke="none" /><path d="M 80.65960295795067 91.81776055985345 l -27.163004315139787 -11.491708507172259 a50.4938666138931,50.4938666138931 0 0,0 0.34554465373243126,-0.7975647023313598 l 26.961168951564677 11.957572354090217" fill="#b7ff1f" stroke="none" /><line stroke="#e1ed5e" stroke-width="0.3" x1="26.266209847984243" x2="21.928928074336255" y1="57.71137044288968" y2="55.22380399835378" /><path d="M 25.398753493254645 57.2138571539825 a86.0,86.0 0 0,1 29.58750427330803,-30.4925239686951" fill="none" id="id95" stroke="none" /><text fill="#e1ed5e" style="font-size:6.75px; font-family:Arial;" text-anchor="middle"><textPath startOffset="21.46611528233685" xlink:href="#id95">November</textPath></text><path d="M 81.78341655067845 89.55222093294921 l -36.14836183466225 -20.73221354240428 a62.67167793235014,62.67167793235014 0 0,0 0.5447670710124831,-0.9311835132009331 l 35.786135089179446 21.351376467959106" fill="#30ff35" stroke="none" /><path d="M 83.17141714833178 87.43820079747577 l -48.2883060306686 -36.04510311616452 a81.25786220873123,81.25786220873123 0 0,0 0.846335691000174,-1.1136785630016495 l 47.66069439944432 36.870966455047196" fill="#49eeff" stroke="none" /><path d="M 83.39014120810768 87.1503855733568 l -25.366954694727642 -19.624223847374534 a53.07167834860265,53.07167834860265 0 0,0 0.5652030618425848,-0.7177504912705064 l 25.02539755229109 20.057966732598086" fill="#98ff23" stroke="none" /><path d="M 85.31137513191541 84.99185889309783 l -13.434776361482623 -13.727018096221412 a40.20740070121521,40.20740070121521 0 0,0 0.4987953149264758,-0.4798406977642589 l 13.19649780294372 13.956241880747982" fill="#ffbe11" stroke="none" /><path d="M 88.39885842347998 82.49532879139004 l -12.06718248495422 -18.20786863259568 a42.84361172670508,42.84361172670508 0 0,0 0.6182393851279301,-0.40212009353451106 l 11.751976074042 18.412887650289726" fill="#ffe315" stroke="none" /><path d="M 89.00827224532344 82.1063720568725 l -18.251262086180922 -29.711552228327584 a55.869541200811675,55.869541200811675 0 0,0 0.8237775856565418,-0.4963167780477516 l 17.737122434306734 30.021315615833956" fill="#76ff27" stroke="none" /><line stroke="#e1ed5e" stroke-width="0.3" x1="56.76296977257108" x2="54.21961505331056" y1="26.818313649435495" y2="22.513508569990535" /><path d="M 56.25429882871898 25.957352633546506 a86.0,86.0 0 0,1 42.26535254187918,-11.944610805530505" fill="none" id="id96" stroke="none" /><text fill="#e1ed5e" style="font-size:6.75px; font-family:Arial;" text-anchor="middle"><textPath startOffset="22.20632615414155" xlink:href="#id96">December</textPath></text><path d="M 89.63071344664047 81.73862282372117 l -9.504629543224306 -16.738627495388098 a40.24888654398728,40.24888654398728 0 0,0 0.605412080996089,-0.33691116760857337 l 9.21509337315617 16.899754060556855" fill="#ffbf11" stroke="none" /><path d="M 91.23893434514133 80.91482961587045 l -5.435899782208927 -11.841604391695846 a34.02968153914935,34.02968153914935 0 0,0 0.5344570225948836,-0.2397952869900523 l 5.231260641147269 11.933420009202427" fill="#ff6409" stroke="none" /><path d="M 91.56875222667455 80.76684994638697 l -17.06041305460143 -38.91778454120187 a63.492959972082744,63.492959972082744 0 0,0 1.0047496126044244,-0.4301813483746598 l 16.387979684206694 39.205685417539314" fill="#31ff40" stroke="none" /><path d="M 92.57280143429618 80.3572730644239 l -19.116454115532186 -50.55732452095629 a75.0507343212702,75.0507343212702 0 0,0 1.2123112164534362,-0.4465044521350183 l 18.24336057330618 50.878892240897635" fill="#41ffcd" stroke="none" /><path d="M 95.692805502759 79.44645832069477 l -8.603240404081266 -41.053883295874954 a62.94564434028564,62.94564434028564 0 0,0 1.062383368187241,-0.2131041092745345 l 7.895290626426888 41.1958913612267" fill="#30ff38" stroke="none" /><path d="M 97.47563105711357 79.15227682838746 l -7.573106828659279 -62.54316951483762 a84.0,84.0 0 0,0 1.436933185961128,-0.16145618611760604 l 6.495406939188433 62.66426165442583" fill="#4dd2ff" stroke="none" /><path d="M 98.19473922651362 79.07773832637324 l -2.468557878844399 -28.60961399938444 a49.71591529439692,49.71591529439692 0 0,0 0.8532430293777068,-0.06622808073435126 l 1.9757246601043585 28.647867342307254" fill="#c1ff1e" stroke="none" /><path d="M 98.55514903715128 79.0497635885617 l -2.1557844614354713 -31.258721681668213 a52.33297125738574,52.33297125738574 0 0,0 0.8992248631738085,-0.054243699423222984 l 1.61739754942204 31.291198650471742" fill="#a1ff22" stroke="none" /></svg>