<?xml version="1.0" encoding="utf-8" ?>
<svg baseProfile="full" height="300mm" version="1.1" viewBox="0,0,200,300" width="200mm" xmlns="http://www.w3.org/2000/svg" xmlns:ev="http://www.w3.org/2001/xml-events" xmlns:xlink="http://www.w3.org/1999/xlink"><defs /><rect fill="#222222" height="300" width="200" x="0" y="0" /><text fill="#FFFFFF" style="font-size:12px; font-family:Arial; font-weight:bold;" x="10" y="20">Jiaying Running</text><text fill="#FFFFFF" style="font-size:4px; font-family:Arial" x="10" y="280">ATHLETE</text><text fill="#FFFFFF" style="font-size:9px; font-family:Arial" x="10" y="290">Jiaying Lu</text><text fill="#FFFFFF" style="font-size:4px; font-family:Arial" x="120" y="280">STATISTICS</text><text fill="#FFFFFF" style="font-size:3px; font-family:Arial" x="120" y="285">Number: 9</text><text fill="#FFFFFF" style="font-size:3px; font-family:Arial" x="120" y="290">Weekly: 1.0</text><text fill="#FFFFFF" style="font-size:3px; font-family:Arial" x="141" y="285">Total: 131.5 km</text><text fill="#FFFFFF" style="font-size:3px; font-family:Arial" x="141" y="290">Avg: 14.6 km</text><text fill="#FFFFFF" style="font-size:3px; font-family:Arial" x="167" y="285">Min: 10.0 km</text><text fill="#FFFFFF" style="font-size:3px; font-family:Arial" x="167" y="290">Max: 21.5 km</text><polyline fill="none" points="32.92295861931052,33.0 33.19292750033492,33.75788420466415 34.10567943134811,34.747767248089076 35.69978139537852,37.51630711228063 37.17818241042551,43.99662952852668 37.66669752841699,46.74951066971698 37.46100695243513,47.32173159213562 37.7438314944302,47.69290059880586 37.83382112142863,49.34768310310028 38.48945983246085,49.61059057044622 39.71074762749777,51.79115593023016 43.310332707565976,56.29135823152319 43.77313650355791,57.63674986464321 43.90169311359932,59.19862416900287 43.81170348660089,60.203781065749354 42.744683623561286,62.863544078631094 42.33330247155391,63.25013309693895 42.03762226852996,63.23466955787444 40.88061277847737,64.70369771505648 38.87512966245413,66.35826782703225 37.55099657943356,68.22929886395286 37.07533712244185,69.65188330017554 36.40684275040985,73.17735284124501 36.291141801382764,75.52761378030118 36.71537861440447,76.4553368913621 37.01105881741387,76.62541875746683 38.21949095145101,76.26979278853105 39.76217027149687,78.326225417346 39.736458949468215,78.12522213088232 41.510540167510044,77.67682908600545 47.03847439766105,77.84690938499989 46.832783821664634,81.06293214959442 45.6757743316266,85.85589822927432 45.62435168764205,87.0 45.58578470462817,85.84043732688588 46.79421683866531,80.90831745567266 47.07704138068948,78.06337490450824 46.93562910964829,77.86237121952581 46.17714511066151,77.8005238705664 41.81907603153377,77.69229094036564 39.18366552647785,78.24891649706115 38.07807868045347,76.37802688006195 36.90821352941566,76.5326468575513 36.18829651339911,75.49668956476671 36.56111068240716,71.83211894771375 37.28102769840916,68.77050126400718 38.168068307451904,67.20873975429276 39.06796457747987,66.11085678718518 41.15058165951632,64.40989338616782 42.616127013548976,62.81715332069143 43.38746667357918,61.4254230310471 43.95311575758387,59.46151209354866 43.58030158856127,59.26048019817972 43.76028084257268,57.89964088742272 43.14320911455434,55.997535253089154 40.10927311850537,52.50253828491259 38.65658342544339,50.04361349726969 38.28376925647899,48.543492317709024 37.39672864743625,48.01767262679641 37.48671827443468,46.64125237938424 37.1524710884114,44.18221881920181 35.77691536139173,38.134967329446226 34.79988512537966,35.98511065093044 33.15436051735014,33.618681308449595" stroke="#4dd2ff" stroke-linecap="round" stroke-linejoin="round" stroke-width="0.5"><title>2023-03-05 10.1km</title></polyline><polyline fill="none" points="81.86894009215757,71.92764386906492 82.10783410139265,72.72981324455759 83.58101382487803,74.40596782142529 83.9393548387161,74.90880885672959 83.8597235023044,75.22009016780066 84.94470046083734,76.41731718163646 85.12387096772727,76.8722597852975 86.29843317971972,77.20747936086991 86.5771428571461,77.60255816945573 87.38341013825266,77.90185928477149 87.73179723502835,78.42862712803617 88.93622119817883,79.47018286108505 88.65751152072335,79.61384489142802 88.89640552995843,80.24834978696163 89.92165898617532,80.40398246424593 90.70801843315712,80.84693571573007 91.20571428572293,79.88919655422796 92.1214746543701,79.15891443892906 92.5295852534473,78.39271122458013 93.39557603685535,77.88988725688978 93.88331797235878,77.1356466868383 93.53493087558309,76.46520597169001 93.67428571428172,76.28562289369438 93.52497695852071,74.48977483175258 93.69419354837737,73.56789395475789 93.6046082949324,70.0359360370785 93.79373271888471,68.9583653544396 93.63447004606132,68.3597100860934 93.84350230416749,67.61737270324375 93.9131797235168,66.25241575890686 93.69419354837737,64.21691992389242 93.9928110598994,62.732179847465886 93.83354838710511,59.307616780388344 94.04258064515307,57.26000873600424 97.77529953914927,57.21211098264757 98.18341013825557,57.33185532403877 97.94451612904959,63.019550571159925 97.97437788017851,68.81468840855814 98.4422119815863,68.98231149250933 101.57769585250935,69.05414987327822 101.60755760366737,75.99828931529919 105.87778801843524,76.09406726414454 106.85327188941301,75.67503807813046 107.66949308755284,75.71095493252506 107.89843317972554,75.79476087728108 107.90838709675882,77.39903291250812 110.32718894010759,77.44692124456924 120.08202764976886,74.64541624070262 119.24589861750428,72.394579044274 119.9924423963239,71.65227084680373 120.44036866360693,70.46696114207589 121.1072811060003,69.72463900204457 121.53529953915859,68.92244613679941 123.37677419355896,67.41382764405716 123.81474654377962,66.7912167215909 124.21290322580899,66.59964337008569 124.9196313364082,65.73755886248546 126.08423963133828,64.7437580128244 126.59188940090826,64.65994304326887 126.731244239636,63.58231590715877 127.0,63.35481539832108 126.6516129032243,62.1574359855731 126.82082949308096,59.87040247542609 126.62175115206628,58.637059581618814 124.9793548387097,58.81667354671663 122.50082949310308,60.01409194540611 120.96792626730166,60.24159986139421 119.58433179723215,60.73253627704253 118.39981566822098,60.421211017644964 117.36460829494172,60.67266610822844 116.58820276496408,58.67298239975935 116.49861751149001,57.52344597961928 116.64792626728013,57.36777859924041 123.29714285714726,57.33185532403877 123.28718894008489,49.835590062582924 121.57511520737899,43.96752415994706 121.3760368663643,43.87171621710877 112.4971428571589,44.59027360716573 112.43741935484286,43.50045959324052 112.05917050692369,42.60225252537202 111.88995391706703,41.51241738743556 111.08368663594592,40.49442905077012 110.04847926268121,40.123160201670544 104.49419354839483,39.15306428426993 104.15576036866696,39.260853172672796 104.2552995391743,39.895607662074326 104.08608294931764,40.18304236500262 102.8318894009135,40.80581479109969 102.67262672811921,41.0692942945243 103.17032258064137,43.859740217987564 103.10064516129205,44.530394016932405 93.43539170507574,44.60224952101271 93.53493087558309,45.895639986796596 93.27612903225236,47.58420854990982 93.45529953917139,48.38656826672377 93.23631336403196,48.57817562893615 93.32589861750603,49.85954066413251 92.89788018431864,51.320516783205676 90.09087557603198,51.3444670380195 88.62764976959443,51.057063610933255 88.43852534564212,50.55410567598301 87.06488479262043,50.48225434109918 85.88036866358016,50.64990737752669 84.93474654378952,50.410402955931204 83.9592626727972,50.494229567098955 84.03889400922344,54.67349805621052 84.2479262672714,56.290074872624245 83.83981566820876,57.14026431072125 79.99760368662828,57.044468669904745 79.19133640550717,55.8230664087896 78.56423963134876,55.39197978604352 74.61253456219856,54.63757383762277 73.44792626726849,54.20648223350872 73.2090322580625,54.31425530436536 73.0,54.948916647386795 74.7518894008972,56.1583547519258 77.30009216591134,59.00826142959704 78.61400921658787,63.18718312166311 78.92258064515772,66.39609629222105 79.22119815667975,67.53356008071569 80.51520737326064,69.59293612607144 81.08258064514666,70.19158420048916 81.63999999999942,71.77199833855411 82.44626728110597,71.07757694204338" stroke="#ff0000" stroke-linecap="round" stroke-linejoin="round" stroke-width="0.5"><title>2023-02-26 21.5km</title></polyline><polyline fill="none" points="154.13760152325267,33.358800740359584 154.45151844300563,33.358800740359584 154.6084769028821,33.0 155.07935228254064,33.018884269331465 158.42256747811916,38.15532366851403 159.83519361709477,41.913130055880174 162.06400374748046,53.63919077202445 162.62905420307652,54.18676381750265 165.1089978692471,58.586162748673814 167.63602907341556,61.02183002102538 168.8916967525147,63.75955179105222 168.95448013648274,66.95035526016727 168.2167753749818,69.14045613717462 165.78391924678,71.99131890763238 162.88018773889053,74.35126664841664 161.40477821597597,76.27695850595774 160.7141609924729,78.24038543499773 159.99215207700036,82.43146707273263 159.75671438715653,85.28209572186461 160.33746068869368,86.39590387091448 160.4630274566589,87.0 160.24328561281436,86.79234220997023 159.61545177327935,85.31985205583624 159.8194977711246,85.33873021947511 160.0706313069095,84.62135845201556 159.788106079126,82.86567202890001 160.52581084059784,79.92060687305639 160.72985683844308,77.69289378251415 162.2523538993264,74.91764898518159 163.0528420447663,73.99255680984061 166.19201124247047,71.50044545381388 167.51046230553766,69.74461667999276 168.93878429048345,66.47834687815339 168.79752167657716,64.6469413205632 168.53069229476387,63.1742496505758 167.8557709172601,61.55049714415509 163.8376343441778,57.07565299634007 162.34652897529304,54.46999052753381 162.11109128542012,53.20490738368244 161.2321239100711,51.675465298918425 159.70962684918777,42.30967739636253 158.81496362783946,39.344990411249455 157.26107487495756,36.436900703280116 155.73857781407423,34.265241170622176 158.53243840002688,38.570763842741144 159.64684346521972,42.00754617751227 160.65137760850484,47.01152176450705 158.94053039574646,39.703777076574625 158.1086505583371,37.89095209290099 156.31932411564048,35.115024460304994 155.67579443013528,34.529618672517245 154.96948136063293,33.15107409293705 151.04551986348815,33.4721060719603 154.3730392130674,33.490990286212764 154.4829101349751,33.188842594157904 154.92239382266416,33.113305582955945 157.24537902895827,36.455784571313416 158.70509270590264,39.08062078009243 159.89797700103372,43.1783015071851 161.6245200597914,52.03422461687296 161.51464913788368,53.56366330999299 162.22096220738604,54.05459118312865 165.06191033127834,58.49175630231912 167.21224123172578,60.814138892892515 168.26386291297968,62.494541281921556 168.71904244666803,64.0805230337428 168.84460921454593,66.98811587126693 167.6988124573836,69.91453642617853 165.6426566328737,72.14235659384576 162.94297112282948,74.25686939958541 161.07516545019462,77.16427939510322 160.13341469087754,81.33651027160522 159.56836423531058,85.82956170209218 160.08632715293788,86.58468415345124 159.64684346521972,85.77292737622338 159.536972543312,84.67799318081234 159.96076038503088,82.77127974624455 160.02354376896983,81.01557325363683 161.20073221810162,76.63566328104935 162.73892512498423,74.42678440785676 165.6426566328737,72.12347689078888 167.1965453857556,70.31101514022157 168.40512552688597,68.32861185572983 168.84460921454593,66.53498795667838 168.95448013648274,64.6469413205632 168.32664629694773,62.11692428778042 164.16724710993003,57.094534455245594 162.72322927901405,54.69657153863227" stroke="#4dd2ff" stroke-linecap="round" stroke-linejoin="round" stroke-width="0.5"><title>2023-02-19 15.1km</title></polyline><polyline fill="none" points="41.49596704734722,176.38728391786572 42.73730140575208,175.238438178465 43.02376318082679,173.821522891114 42.64181414741324,172.9024394315784 39.936341827735305,171.67699081249884 38.981469244288746,169.99199148459593 40.12731634447118,166.89003826587577 39.936341827735305,165.85604733973742 38.69500746921403,164.43909151660046 38.88598198594991,162.29449808501522 38.249400263652205,160.30307734088274 38.05842574703274,154.55852667003637 37.517331283015665,152.79684430229827 38.15391300531337,151.53302286055987 39.52256370824762,150.84366365752066 39.52256370824762,148.00961615299457 41.241334358404856,146.86067099764477 42.164377855777275,137.2476721170533 41.52779613342136,131.00481672448223 44.32875571149634,129.20470750832465 46.302159050654154,129.85581198264845 47.3206898063072,129.47280950730783 46.49313356721541,125.29805350894458 48.975802284199744,123.0 50.94920562329935,126.485374844342 52.15871089568827,134.030509948876 52.57248901511775,137.86046133210766 51.68127460393589,142.1116549805738 48.68934050918324,142.37974642618792 44.39241388376104,146.6308814836084 41.33682161674369,146.82237275654916 40.22280360275181,157.69889350578887 41.11401801399188,164.86034929263406 43.34205404197564,169.99199148459593 46.906911686761305,175.3150280196569 46.875082600687165,176.61705258273287 39.77719639724819,177.0 35.2892952550319,176.19580990745453 35.225637082825415,173.85981797933346 33.85698637989117,171.56210476960405 34.0161318104947,166.27730329576298 30.769565026799683,163.9795369618223 28.827990773832425,163.32850024028448 28.19140905153472,161.03071324559278 29.11445254884893,159.69033006374957 29.14628163498128,158.12015994006651 27.42751098482404,153.6010917746171 29.369085237791296,151.03515247037285 34.97100439388305,146.09470532444539 35.2892952550319,145.0606488273188 34.047960896627046,142.26485011915793 35.92587697732961,144.63936561578885 36.339655096817296,147.70323117182124 34.84368804941187,151.609618238057 35.225637082825415,150.2691965479753 37.58098945528036,147.93301993451314 38.63134929706575,147.74152931018034 39.904512741661165,148.50749113675556 39.84085456939647,150.95855695864884 37.67647671356099,152.56705894786865 38.949640158214606,162.83064775765524 31.883583040791564,164.43909151660046 33.12491739925463,165.1667182444071 34.23893541324651,166.73685463063885 34.20710632717237,170.83449223067146 35.51209885784192,174.3959487453685 35.48026977170957,176.04263061849633 38.40854569431394,175.12355338328052 41.59145430568606,176.00433578516822 42.89644683635561,174.6257188054151 42.89644683635561,173.17050570668653 42.22803602798376,172.2131251466344 40.03182908607414,171.56210476960405 39.013298330421094,170.52812857337995 38.790494727611076,168.99630599436932 40.06365817220649,167.04322182954638 39.71353822492529,165.81775131696486 38.217571177578066,164.70716470948537 36.148680580139626,164.7454608619446 34.493568102188874,166.6985587106028 34.20710632717237,167.96232170885196 34.23893541324651,171.86846746102674 35.83038971899077,176.46387349063298 39.07695650268579,175.6979769570753 41.36865070281783,176.42557870646124 42.99193409475265,175.2767331012583 43.24656678363681,174.43424376662006 42.6099850613391,172.97902981814696 39.172443761024624,170.98767395183677 38.88598198594991,169.72392261153436 39.968170913809445,168.00061748133157 40.15914543054532,166.6219668572303 37.99476757476805,164.70716470948537 35.766731546784285,165.28160652765655 34.047960896627046,167.46447626058944 34.047960896627046,171.0259693710832 35.416611599503085,174.0129982875369 35.257466168899555,175.6979769570753 35.92587697732961,176.38728391786572 38.3130584359169,175.544797435723 41.33682161674369,176.15751509187976 43.05559226695914,174.85548870448838 43.15107952529797,173.93640814247192 42.419010544603225,172.63437293740571 39.74536731099943,171.63869546935894 38.981469244288746,170.56642404623562 39.07695650268579,168.99630599436932 40.03182908607414,167.19640532159247 39.87268365547061,165.97093538133777 38.05842574703274,164.70716470948537 36.30782601068495,164.70716470948537 35.06649165228009,165.31990261311876 34.0161318104947,167.23470118347905 34.111619068775326,171.83017214018037 35.257466168899555,174.08958841496496 35.2892952550319,175.88945125817554 35.798560632858425,176.2341047184309 38.822323813743424,175.468207648315 41.75059973623138,176.1192202719103 42.76913049194263,175.04696349726873 42.99193409475265,173.63004738269956 42.67364323354559,172.94073462713277 39.99999999994179,171.67699081249884 39.013298330421094,170.60471951463842 38.85415289987577,169.68562704027863 39.936341827735305,167.57936373885605 39.80902548332233,166.2007113440195 38.44037478038808,164.93694155744743 36.59428778575966,164.55398005462484 34.84368804941187,165.3964947705099 34.047960896627046,167.1581094553112 34.111619068775326,171.52380941310548 35.35295342723839,174.31935868956498 35.448440685577225,176.08092544745887 38.47220386652043,175.50650254424545" stroke="#4dd2ff" stroke-linecap="round" stroke-linejoin="round" stroke-width="0.5"><title>2022-12-04 10.9km</title></polyline><polyline fill="none" points="81.85180388530716,162.06191045380547 83.73006475486909,165.05410448494513 84.84902867715573,165.9673672791978 84.94893617022899,166.3038304783404 85.61831637371506,167.02481934763637 85.58834412583383,167.3853118901534 86.61739130436035,167.72177045835997 87.16688251620508,168.09427687717834 87.58649398705165,168.56291207163304 88.72543940797914,169.1877556815889 89.1850138760492,169.75251491468953 89.12506938019942,169.8606599466002 90.19407955597853,170.7017840974804 90.5037927844678,170.93008803928387 90.71359851989837,170.85799211230187 93.73080481038778,167.2531314376538 93.79074930620845,165.4146039235202 93.58094357076334,164.59747005176177 93.82072155413334,163.55200991159654 93.63089731731452,162.95116594941646 93.89065679926716,159.6584788099426 93.85069380202913,155.98111985103606 94.08048103608598,153.97413980968122 93.89065679926716,152.33968405573978 93.87067530065542,149.57547191261983 94.1703977798461,147.42414242375526 95.05957446810498,147.0515612426243 96.05864939872117,146.93137347725133 96.57816836264101,147.08761754486477 98.13672525438596,147.07559877883614 98.21665124886204,147.21982387844764 98.08677150786389,152.24353879185946 97.89694727104506,153.3492039077828 98.08677150786389,158.81726448571135 98.416466234994,159.03357739667263 101.29380203518667,158.8533166690977 101.76336725255533,159.11769896159967 101.62349676227313,161.53316030359565 101.72340425531729,166.015433517794 105.55985198891722,166.18366517622053 107.05846438485605,165.73905233962432 107.93765032378724,165.70300256608607 108.05753931547224,165.84720158459822 107.92765957447409,167.2891806687985 108.06753006477084,167.50547579064732 110.19555966698681,167.54152493348374 114.84125809436955,166.39996261912165 120.32617946347455,164.6936037848427 119.65679925995937,162.71082738327823 121.07548566143669,159.87478995431593 123.11359851989255,157.67560548552137 125.79111933395325,155.2360180527903 126.7602220166591,154.58705403016938 126.92007400556759,153.58956431880506 127.0,151.1138252175224 126.83015726179292,148.6861009252243 125.3215541165846,148.83032376929623 123.82294172064576,149.6115273311807 120.14634597595432,150.62107392597682 118.71766882517841,150.4528168474426 117.88843663275475,150.63309227822901 116.72950971325918,148.2053566529503 116.679555966708,147.58038574370585 116.83940795561648,147.3760675084195 123.45328399629216,147.27991761035082 123.61313598520064,145.42901457431435 123.52321924145508,139.65975268192415 122.0046253469045,134.49118104051013 121.73487511563872,133.91420810643467 121.5250693802227,133.84208626230247 112.70323774285498,134.5152215092603 112.55337650325964,134.3228976020764 112.57335800188594,133.18096700344904 112.01387604072806,131.19758375181846 111.28455134136311,130.42826117439836 104.6307123034203,129.0699119607234 104.31100832564698,129.20214143273188 104.11119333952956,130.13976372557954 102.85235892693163,130.88504714817827 102.87234042555792,132.24337241055764 103.29195189638995,133.7940050048419 103.18205365403264,134.49118104051013 94.22035152638273,134.50320127556915 93.5409805735544,134.65946420381806 93.44107308048115,137.88083172688494 93.29121184091491,138.02506970611284 93.08140610545524,140.14053685320687 93.28122109160176,140.62131877943466 93.14135060130502,141.40258462142083 88.95522664200689,141.09007899599237 88.6854764107411,140.59727973647387 88.35578168362554,140.50112350835843 84.8090656799177,140.39294764441001 84.0697502312687,140.50112350835843 84.089731729895,144.9242170631769 84.03977798334381,146.83522316398012 83.89990749306162,147.12367383451783 80.11341350601288,147.0515612426243 79.59389454212214,146.67897871340392 79.3141535615141,145.8977529045369 78.29509713230073,145.2367110523337 76.34690101757587,144.97229312326817 73.4795559667109,144.23913076850295 73.21979648472916,144.3473025917483 73.0,144.9242170631769 74.5685476410872,145.9338096108113 77.17613320999953,148.80628664266987 78.71470860316185,153.46938418340142 78.86456984275719,156.425774807547 79.18427382054506,157.47130727700278 81.13246993525536,160.35547975995723 81.7518963922339,161.797535717953 82.58112858465756,161.06449312876066" stroke="#ff0500" stroke-linecap="round" stroke-linejoin="round" stroke-width="0.5"><title>2022-02-27 21.3km</title></polyline><polyline fill="none" points="133.40909090911737,158.49228141718777 133.0,159.5383794475929 134.27840909088263,161.01522018865217 136.32386363623664,167.2302129281452 150.18181818176527,169.1993042413378 152.2272727272357,168.03015716187656 154.8352272726479,156.58468554273713 156.47159090900095,153.93865402054507 155.90909090905916,149.20037831284571 157.0852272725897,142.9236357669579 161.17613636353053,138.6160240699537 162.4545454545878,132.7083850222407 164.60227272717748,130.86223422986222 170.38068181817653,138.24679857096635 170.1249999999418,143.41593200340867 168.84659090905916,144.7697442806675 164.85795454547042,144.83128111972474 162.96590909082443,145.93894299247768 161.32954545447137,148.70808748307172 161.1249999999418,151.04646482592216 158.56818181811832,153.44636761967558 157.59659090905916,157.20003980532056 155.6022727272939,160.030660154589 154.52840909076622,160.09219521057094 154.52840909076622,158.3692109240801 156.21590909082443,155.47704605787294 155.1931818180601,152.2156496042735 156.0625,145.2620387916686 160.76704545452958,140.15446086332668 162.4545454545878,132.58530850405805 165.0625,130.80069575860398 170.94318181811832,137.6314221638604 169.3579545452958,144.2774493098259 163.78409090905916,145.0158915935317 162.30113636364695,146.86199277377455 161.43181818182347,149.2619146340876 162.19886363629485,152.8925448685186 165.11363636353053,154.0001897882903 178.81818181811832,152.95408075855812 183.98295454547042,154.430939961283 187.0,153.56943926296663 185.82386363629485,154.30786851939047 179.5852272727643,153.0771525169257 163.57954545447137,154.24633278761758 161.53409090905916,151.72336159279803 160.30681818176527,151.661825559102 158.46590909088263,153.56943926296663 156.88068181811832,157.69232269801432 154.22159090911737,160.15373025950976 154.32386363623664,158.18460513051832 156.21590909082443,154.61554707057076 155.24431818176527,152.0925776445656 156.01136363629485,145.44664911436848 157.59659090905916,142.55441328766756 160.51136363623664,139.84677386417752 162.65909090905916,132.154540463991 165.77840909082443,130.80069575860398 170.53409090905916,136.76989398588194 170.5852272726479,142.73902455967618 169.8181818180019,144.15437549509807 170.89204545452958,138.9237117881421 169.61363636347232,135.90836439898703 165.982954545354,131.53915693837916 162.76136363623664,131.90838714007987 160.30681818176527,140.46214768273057 156.77840909082443,143.04670986923156 155.857954545354,144.7697442806675 155.3977272725897,152.2156496042735 156.01136363629485,154.67708275915356 153.9147727272357,157.69232269801432 153.96590909082443,159.90759002097184 155.24431818176527,159.90759002097184 157.34090909088263,157.01543360220967 158.2102272727061,154.12326130241854 161.3806818180601,150.67724804085447 162.55681818170706,147.04660253581824 164.55113636358874,145.32357557310024 168.02840909082443,144.83128111972474 170.32954545447137,142.30826482450357 170.89204545452958,138.18526096252026 166.95454545452958,132.46223195723724 165.3181818180601,131.1699264779454 162.35227272717748,132.03146381641272 160.05113636347232,140.83137162879575 156.7272727272939,143.35439499892527 155.857954545354,145.6312593726907 160.51136363623664,139.66216157836607 162.30113636364695,132.64684676681645 165.11363636353053,130.9237726937281 170.5852272726479,136.89296952617588 169.920454545354,143.04670986923156 168.4374999999418,144.95435477618594 164.55113636358874,144.95435477618594 163.1704545454122,146.18508975894656 161.17613636353053,150.80032033129828 153.6079545454122,159.16916861524805 154.01704545452958,156.64622100134147 155.90909090905916,154.86168978211936 155.2954545454122,151.6002895180718 156.36931818170706,143.723616917443 160.30681818176527,139.1698618333321 163.0681818180601,131.96992548170965 165.4204545454122,130.98531115072547 170.43181818170706,137.38527139968937 170.0227272727061,143.4774690004997 168.38636363635305,145.07742840395076 164.90909090905916,145.0158915935317 163.0681818180601,146.12355307827238 161.43181818182347,148.52347830333747 161.27840909088263,150.61571188492235 158.72159090894274,152.95408075855812 157.2897727272357,156.40007912361762 158.00568181817653,153.2617601006059 161.1249999999418,150.18495859164977 163.1704545454122,145.69279611110687 168.8977272727061,143.96976471930975 170.84090909082443,139.5390866852831 170.94318181811832,138.00064809422474 169.25568181817653,135.16990934533533 165.88068181817653,131.35454174067127 162.6079545454122,132.03146381641272 161.5852272726479,135.47759907675209" stroke="#4dd2ff" stroke-linecap="round" stroke-linejoin="round" stroke-width="0.5"><title>2022-02-05 10.0km</title></polyline><polyline fill="none" points="15.458536585385446,226.79175495971867 14.650731707311934,228.25008425844135 15.142439024435589,227.67943506401207 16.63512195122894,227.7851109766052 17.179512195114512,226.19996580253064 18.145365853706608,226.53813127240574 18.356097560958005,228.48257045094215 19.058536585362162,229.6449969301757 21.710243902431102,231.18784235257772 23.360975609743036,231.56826796791574 23.60682926827576,232.35025144158863 24.467317073169397,232.899751318997 24.467317073169397,233.4281150111492 25.32780487803393,235.01319682494795 24.555121951241745,235.26680862589274 23.624390243930975,236.577130597856 22.658536585367983,236.19671551954525 22.763902439037338,235.30907722473785 22.131707317050314,235.66835991655535 21.025365853653057,234.75958466839802 20.9024390244158,235.4147486787988 21.76292682928033,236.00650768030027 21.3063414634089,236.4080573284882 20.726829268300207,236.4080573284882 18.12780487802229,233.76626696389576 17.88195121951867,233.0688278684538 15.65170731706894,231.27238144734292 13.509268292691559,232.45592462462082 13.0,232.30798215107643 13.3863414634543,233.7874014399422 14.40487804877921,235.4570172431413 15.405853658536216,236.34465481174993 19.813658536586445,237.04208127355378 22.799024390231352,238.60599750082474 24.098536585399415,238.54259575465403 24.941463414637838,237.97197903870256 26.89073170730262,238.6482653192943 27.55804878048366,240.55030692463333 29.59512195122079,242.17759330861736 30.789268292690394,244.24866389407543 31.017560975597007,245.24192402559856 33.40585365856532,247.62995265756035 33.52878048780258,248.64432696015865 33.05463414636324,250.18701030702505 32.1941463414405,250.35607069577964 31.930731707339874,251.01117820947547 30.68390243902104,251.98326885733695 31.42146341461921,252.3425184268126 33.80975609755842,252.36365073223715 35.302439024380874,253.69498099474004 35.70634146343218,253.039883201287 36.84780487805256,252.5961059286492 37.7258536585141,252.87082532100612 38.79707317071734,252.3847830351442 40.04390243900707,252.82856082623766 40.86926829270669,253.84290597459767 42.78341463414836,254.0753592699475 44.46926829271251,254.89950945552846 45.76878048782237,255.0685654396948 46.594146341463784,256.50553492602194 47.700487804890145,255.57573244428204 49.54439024391468,256.0828980267979 50.1765853658726,256.5477985616599 52.30146341465297,256.5900621873734 52.77560975609231,257.2662788562011 54.16292682924541,257.32967403926887 55.26926829267177,256.27308475364407 56.516097561019706,255.85044731137168 57.65756097561098,253.39913067211455 60.44975609757239,252.5961059286492 60.537560975615634,251.64515096375544 61.275121951213805,251.30703243799508 63.32975609754794,252.2157245426497 66.38536585363909,250.673058498709 65.70048780491925,248.60206147776626 64.75219512195326,247.73561691287614 65.87609756094753,244.3965965997777 65.85853658535052,243.27653167475364 67.0,241.43791949469596 66.7892682926904,240.2121676568495 66.31512195122195,239.85289399209432 65.87609756094753,238.73280092653295 66.56097560975468,238.1199168787134 66.70146341464715,237.4647626686492 65.85853658535052,236.13331292869407 64.52390243904665,235.83743387743016 64.82243902434129,235.33021152051515 64.27804878051393,234.86525644351786 64.13756097562145,232.98428961353784 63.69853658537613,231.84301930340007 63.41756097562029,231.69507632846944 62.73268292681314,232.01209684088826 59.43121951218927,230.82855075878615 57.95609756099293,231.01876404440554 57.14829268294852,230.80741593685525 56.65658536585397,231.33578574254352 54.77756097560632,231.29351621489332 54.303414634166984,232.2445781967399 54.19804878049763,231.8218846001255 54.935609756124904,231.2512466773769 54.91804878049879,230.97649444267154 53.37268292682711,230.32131435220072 51.47609756098245,229.9831559573795 50.826341463427525,229.4125122321566 49.7902439024183,231.08216842848924 50.86146341462154,228.92640689766267 50.492682926822454,228.48257045094215 49.66731707318104,228.58824589426513 49.38634146339609,229.01094704974093 47.27902439024183,228.4191651553847 46.64682926831301,227.86965166220034 45.6458536585269,228.14440861754701 44.71512195121613,227.3201364991255 43.661463414639,227.3201364991255 39.35902439025813,226.28450722928392 37.84878048778046,224.99524617650604 37.11121951221139,225.18546559846436 32.053658536606235,224.17095970237278 29.384390243940288,222.67032596071658 26.52195121953264,222.77600480092224 24.309268292679917,223.55802629844402 20.287804878054885,223.83278980536852 18.882926829275675,224.6359422779642 18.285853658540873,225.50249752365926" stroke="#4dd2ff" stroke-linecap="round" stroke-linejoin="round" stroke-width="0.5"><title>2022-01-23 10.2km</title></polyline><polyline fill="none" points="84.88178634854557,267.0 84.6851454670832,267.0 84.69671257774462,266.5672042636652 84.9627561232628,266.5113595372459 85.27506811147032,265.897065807505 85.92282630925183,265.3525755179726 86.44334628958313,265.25484622649674 87.35714803285373,266.17629062535707 88.10901022670441,265.8551820280263 88.6757986497687,266.3438251998523 89.03437908066553,266.3438251998523 89.71683861041674,266.1204457144777 91.08175767003559,264.9476964993228 93.08286781670176,264.83600549181574 95.19964907012763,263.37005124752613 96.77277612185571,262.89535740982683 99.2365706954879,262.7417795841102 99.60671823708981,262.32292995558237 99.86119467190292,261.16410492583236 99.21343647413596,259.6143332352585 99.07463114605343,258.4415195460824 99.52574846234347,256.97548608901707 99.51418135168205,255.78868379712367 98.45000716963841,252.28405696846312 97.69814497580228,248.7374364956704 97.20075921679381,247.87170984435943 97.5593396477052,246.4613996376138 98.58881249770639,245.67943821894733 99.30597335954371,245.49791072191874 100.70559375114681,245.58169267822086 103.1462541034416,246.08438317025866 103.86341496527893,245.8190745656393 104.33766650290636,245.46998338995036 104.53430738438328,243.33352295231452 105.28616957820486,243.12406396999722 105.95706199730921,243.40334253067704 107.2294441715203,243.11010002466355 108.81413833389524,241.83937409906503 109.01077921535762,241.0434179404474 108.59436323109549,237.78971689978061 108.00444058670837,235.82069555072667 108.30518546422536,235.45761002069048 107.91190370131517,233.54441016556666 108.1201116934244,231.32394233754167 110.35256405360997,232.1618596225162 111.54397645306017,232.9299452526102 112.05292932273005,232.72046784812846 112.73538885252492,231.39376900465868 112.89732840197394,230.2486064579498 112.05292932273005,229.03360480429546 112.07606354408199,228.50291051039676 112.59658352445695,227.7068646046464 114.28538168288651,226.6035640517075 115.31485453293135,225.4583551231699 114.65552922448842,224.64832259975083 113.10553639412683,224.70418708981742 111.98352665870334,224.10364243849472 112.19173465084168,223.64275726573396 112.06449643342057,223.54499351332925 111.5902448957786,223.712588467999 111.57867778511718,223.29360063606146 113.0592679514375,219.49470988097892 113.23277461153339,218.47513386972423 113.00143239804311,217.6790204613426 112.16860042946064,216.89686873518804 109.4850307530287,216.47785675374325 108.9992121046962,216.17058035700757 108.7216014485166,215.61189395355905 114.10030791211466,213.0 108.7563027805445,215.6956970823303 109.09174899010395,216.26835020620638 109.58913474908331,216.5337251037272 111.91412399464753,216.77116529664636 112.86262706997513,217.49744998603273 113.16337194749212,218.22373021457315 112.98986528738169,219.53661007699702 111.60181200644001,223.684655992045 112.1107648761099,223.5868922742884 111.91412399464753,224.0757100549381 113.0245666194096,224.74608544003422 113.99620391606004,224.74608544003422 114.45888834302605,224.50866125908215 115.26858609022747,225.51421923060116 114.53985811774328,226.53373455645487 112.64285196714627,227.8604879159684 111.97195954804192,228.7822235934873 111.91412399464753,229.10343282356916 112.6659861884691,229.94136583946238 112.80479151658074,230.3603301213152 112.60815063511836,231.6591099638681 111.93725821601402,232.74839819015324 111.45143956766697,233.04166638331662 110.30629561090609,232.23168579500634 108.24734991086007,231.3658383427537 108.00444058670837,231.5194569016312 107.77309837318899,233.3349338492917 108.21264857886126,235.45761002069048 107.93503792265255,235.8067307432284 107.92347081196203,236.39325123750314 108.38615523894259,237.71989400816528 108.84883966592315,241.64387659132626 107.29884683556156,242.98442444245302 104.64997849112842,243.33352295231452 104.44177049896098,243.6686565527125 104.29139806021703,245.44205605138995 103.87498207594035,245.7911473094864 102.94961322196468,246.04249237750628 100.70559375114681,245.38620135450037 98.80858760053525,245.49791072191874 97.54777253704378,246.29383691157273 97.08508811004867,247.48073444158217 98.42687294830102,252.91238415603584 99.35224180223304,255.0347090993455 99.59515112639929,256.89171220002754 99.15560092077067,258.0645412489321 99.09776536741992,259.20943458486727 99.56044979437138,260.57770721352426 99.86119467190292,260.92675382084417 99.54888268369541,262.2391598519753 99.07463114605343,262.6998946879685 97.03881966733024,262.6859330526422 95.39628995159,263.1885508873529 92.87465982456342,264.82204410846316 91.0586234486691,264.72431437889463 89.73997283178323,265.9668720737609 88.7104999817675,266.35778640372155 88.16684578009881,265.6457629082215 87.32244670085493,266.0925232491645 86.38551073623239,265.01750332551455 85.87655786654796,265.1850395402944" stroke="#4dd2ff" stroke-linecap="round" stroke-linejoin="round" stroke-width="0.5"><title>2022-01-15 15.0km</title></polyline><polyline fill="none" points="137.22303537410335,214.38931769909686 137.49593909774558,213.0 137.11807240350754,213.7830710735143 137.34899093885906,215.52602554127225 135.94248713247362,220.42643094906816 138.41961323923897,222.0430351793184 137.8108280095621,225.88242179676308 138.29365767445415,226.5896697922435 138.37762805100647,228.054676140222 139.38527256902307,229.11553661138169 140.47688746353379,231.5655992423126 140.83376156367012,238.0063531648193 141.7154505169019,238.2841852936399 150.3434067023918,236.7182177231589 152.00182163825957,237.09708188463992 152.00182163825957,240.50682947729365 153.1774069092935,242.65368001681054 153.32435506818,245.12884596009098 155.57056263959385,246.66949617533828 156.41026640459313,248.28590427839663 157.87974799337098,248.816285555411 159.70610368222697,248.71526065055514 160.20992594127893,250.5842137544969 161.74238531242008,251.72073139586428 164.13554104266223,252.20059260743437 168.04016354994383,251.72073139586428 170.89515635097632,253.79170374565 173.72915655790712,253.56440287092119 176.26926044706488,254.06951560154266 180.1738829544047,257.35271960489627 180.5097644603229,258.43869150181126 180.2158681426081,259.1458330624737 181.2445052547555,261.2924986423168 181.3284756312496,262.22692288825056 182.08420901972568,262.6057423789025 182.3361201492662,263.9189781445166 183.97354249103228,264.9038997379539 183.97354249103228,266.368646636387 183.88957211450906,264.9291540788254 182.252149772743,263.86846922409313 182.10520161388558,262.58048776678334 181.391453413642,262.15115891059395 181.2025200664939,261.0652056479594 180.13189776611398,258.9943029225833 180.55174964861362,258.51445677960874 180.2788459249714,257.78205798314593 178.70440136553952,256.2414869048371 178.09561613594997,255.35754772668588 175.91238634692854,254.01900438153825 174.23297881690087,253.51389153298805 170.5382822508691,253.53914720346802 167.62031166744418,251.54394015490834 164.15653363679303,252.15008095104713 161.0496297062782,251.49342834531853 160.46183707073214,250.88728570930834 159.62213330573286,249.5487147050735 159.1812888291024,247.90705971281568 158.88739251135848,242.24956860191014 157.85875539924018,241.97174156625988 157.0610368224152,242.55265223387687 156.45225159282563,242.40111047099344 157.60684426972875,242.30008257004374 158.32059246997233,240.65837256719533 156.85111088119447,237.17285463729058 157.77478502271697,235.5058479469153 161.9942964418733,234.74811338591098 158.65647397594876,235.20275444100844 157.94272577570518,236.0615182711772 159.70610368222697,239.42076755908784 159.55915552336955,241.7191712242202 159.0343406702159,243.18407510314137 159.0553332643176,245.4571821719146 160.0629777823924,250.5337017206475 160.9866519238858,251.51868425158318 162.0572742242657,252.0238017585798 164.51340773687116,252.225848431146 168.16611911472864,251.69547551318828 170.7692007862497,253.64016985573107 173.81312693440123,253.438124503984 176.03834191171336,253.94323752944183 180.11090517195407,257.302209151414 180.55174964861362,258.4134364032798 180.2788459249714,259.2721080979245 181.22351266056648,261.1157152228261 181.4124460077437,262.30268683943723 182.1891719903506,262.5299785338866 182.52505349638523,264.14626814097574 183.86857952040737,264.95440841678646 184.0575128675555,267.0 183.78460914391326,264.9038997379539 182.3361201492662,263.9694870532694 182.00023864326067,262.45421466222615 181.4334386018454,262.3279414839635 181.22351266056648,261.09046043684066 180.15289036021568,259.0700680057489 180.55174964861362,258.66598725547374 180.3418237073638,257.9083338144992 179.56509772472782,256.84761453969986 176.16429747638176,254.1957935998944 173.83411952853203,253.6906811640947 170.6852304097265,253.6906811640947 167.7672598263598,251.6702196275437 164.09355585442972,252.32687169667042 162.20422238312312,252.0238017585798 160.81871117083938,251.39240469051583 159.22327401733492,248.816285555411 157.66982205212116,248.99307902545843 156.62019234584295,248.36167311180907 156.0743848985876,247.3766762065643 153.40832544464502,244.67422576717217 153.0934365328285,242.55265223387687 152.00182163825957,240.48157228529453 151.79189569700975,237.09708188463992 149.58767331388663,236.7687329829787 141.27460604027146,238.35995763051324 140.81276896951022,237.6780056434509 141.08567269315245,236.46564124677388 140.5188726517663,234.72285552155518 141.04368750486174,232.0202469870128 138.8604577158403,228.2062279546808 138.31465026855585,225.32672532073047 138.33564286274486,222.59874009252235 135.94248713247362,219.97175883203454 136.04745010309853,218.80981463460193 137.24402796820505,216.15752731630346 136.23638345021755,218.38039889471838 136.04745010309853,220.37591187213548 138.25167248627986,222.4977029418369 138.08373173320433,225.02361755010497 138.7974799335061,228.054676140222 140.85475415780093,231.64137393284182 140.45589486940298,234.72285552155518 140.95971712839673,236.11203368441784 140.91773194013513,238.0316106458631 141.75743570516352,238.4862447995547 149.96554000812466,236.6929600888252 151.72891791461734,237.07182429451495 151.98082904415787,240.68362973857438 153.00946615630528,242.37585350018344 153.61825138592394,245.33089907250542 156.1583552750526,247.3766762065643 156.45225159282563,248.21013541832508 157.103022010735,248.76577310885477 159.45419255274464,248.8415417742217 160.25191112945322,250.76100577974285 161.23856305333902,251.69547551318828 163.35881506002625,252.2511042519909 165.08020777831553,252.17533678066684 163.0229335540498,252.225848431146 160.8816889532609,251.49342834531853 159.32823698795983,248.89205420314102 158.1736443111149,249.06884761131369 156.89309606945608,248.74051688116742 155.61254782782635,246.7200091113773 153.87016251540626,245.53295199616696 153.3663402564125,244.74999586571357 153.1354217210319,242.72945082306978 152.08579201475368,240.73414407242672 151.72891791461734,238.51150222448632 151.93884385589627,237.47594538259727 151.51899197336752,236.99605150641582 150.51134745535091,236.86976346741721 151.85487347940216,237.4254302878544 151.95983644996886,240.48157228529453 153.1983995033952,242.27482558749034 153.59725879182224,245.2298725398723 157.77478502271697,248.96782282431377 159.34922958211973,248.63949194087763 159.1393036408408,246.3664183114306" stroke="#4dd2ff" stroke-linecap="round" stroke-linejoin="round" stroke-width="0.5"><title>2022-01-01 17.2km</title></polyline></svg>