<?xml version="1.0" encoding="utf-8" ?>
<svg baseProfile="full" height="300mm" version="1.1" viewBox="0,0,200,300" width="200mm" xmlns="http://www.w3.org/2000/svg" xmlns:ev="http://www.w3.org/2001/xml-events" xmlns:xlink="http://www.w3.org/1999/xlink"><defs /><rect fill="#222222" height="300" width="200" x="0" y="0" /><text fill="#FFFFFF" style="font-size:12px; font-family:Arial; font-weight:bold;" x="10" y="20">Grid over 7km</text><text fill="#FFFFFF" style="font-size:4px; font-family:Arial" x="10" y="280">ATHLETE</text><text fill="#FFFFFF" style="font-size:9px; font-family:Arial" x="10" y="290">Jiaying Lu</text><text fill="#FFFFFF" style="font-size:4px; font-family:Arial" x="120" y="280">STATISTICS</text><text fill="#FFFFFF" style="font-size:3px; font-family:Arial" x="120" y="285">Number: 21</text><text fill="#FFFFFF" style="font-size:3px; font-family:Arial" x="120" y="290">Weekly: 1.1</text><text fill="#FFFFFF" style="font-size:3px; font-family:Arial" x="141" y="285">Total: 232.2 km</text><text fill="#FFFFFF" style="font-size:3px; font-family:Arial" x="141" y="290">Avg: 11.1 km</text><text fill="#FFFFFF" style="font-size:3px; font-family:Arial" x="167" y="285">Min: 7.1 km</text><text fill="#FFFFFF" style="font-size:3px; font-family:Arial" x="167" y="290">Max: 21.5 km</text><polyline fill="none" points="25.28197241287853,32.0 25.461951666889945,32.50525613644277 26.07045295422722,33.16517816539272 27.133187596919015,35.01087140819436 28.118788273612154,39.33108635235112 28.44446501895436,41.16634044647799 28.307337968290085,41.54782106142375 28.495887662953464,41.795267065870576 28.555880747619085,42.898455402071704 28.99297322164057,43.07372704696172 29.807165085003362,44.52743728682253 32.2068884717155,47.52757215435122 32.51542433571012,48.42449990976456 32.60112874238985,49.46574944600434 32.541135657724226,50.13585404383775 31.82978908237419,51.90902938575891 31.555534981031087,52.16675539796415 31.35841484568664,52.15644637191872 30.58707518564188,53.13579847670917 29.250086441636086,54.238845218023926 28.367331052955706,55.48619924263767 28.050224748294568,56.434588866788545 27.604561833606567,58.78490189416334 27.52742786759336,60.35174252020079 27.81025240960298,60.97022459423897 28.00737254494743,61.08361250498274 28.812993967629154,60.84652852568979 29.84144684766943,62.217483611559146 29.824305966321845,62.083481420588214 31.00702677834488,61.78455272400606 34.692316265107365,61.89793959000235 34.55518921444309,64.04195476639143 33.78384955441288,67.23726548618288 33.749567791761365,68.0 33.72385646974726,67.22695821792877 34.52947789244354,63.93887830377935 34.71802758712147,62.042249936333974 34.623752739760675,61.908247479688725 34.11809674043616,61.86701591371093 31.212717354355846,61.79486062691285 29.45577701764705,62.16594433137652 28.718719120297465,60.918684586715244 27.93880901960074,61.02176457170572 27.458864342261222,60.331126376513566 27.707407121604774,57.88807929847826 28.18735179894429,55.84700084267388 28.778712204963085,54.805826502866694 29.378643051648396,54.07390452479012 30.767054439682397,52.93992892411188 31.74408467570902,51.87810221379186 32.258311115714605,50.95028202069807 32.635410505055916,49.6410080623682 32.38686772569781,49.50698679879133 32.50685389505816,48.59976059162 32.095472743036225,47.33169016872853 30.072848745665397,45.001692189936875 29.104388950305292,43.36240899818222 28.855846170976292,42.362328211806016 28.2644857649575,42.01178175120003 28.32447884962312,41.09416825292283 28.101647392264567,39.45481254614424 27.18461024093267,35.42331155297143 26.533256750248256,33.99007376728696 25.436240344904945,32.41245420563064" stroke="#4dd2ff" stroke-linecap="round" stroke-linejoin="round" stroke-width="0.5"><title>2023-03-05 10.1km</title></polyline><polyline fill="none" points="64.57929339476686,57.95176257937419 64.73855606759025,58.48654216303839 65.72067588325444,59.60397854761686 65.95956989247497,59.93920590448397 65.90648233486718,60.146726778533775 66.62980030721519,60.94487812108855 66.74924731181818,61.24817319020076 67.53228878648224,61.47165290724661 67.71809523809497,61.73503877963958 68.25560675883025,61.934572856509476 68.48786482334981,62.28575141869078 69.29081413210952,62.98012190739246 69.10500768048223,63.07589659428777 69.26427035330562,63.49889985797199 69.94777265744779,63.60265497616638 70.47201228876656,63.89795714381762 70.80380952381529,63.259464369482885 71.41431643624674,62.77260962595756 71.68639016895759,62.26180748305342 72.26371735789871,61.92659150459076 72.58887864823191,61.423764457889774 72.35662058371963,60.97680398112425 72.44952380951872,60.85708192912716 72.34998463901138,59.65984988783748 72.46279569892067,59.04526263650769 72.40307219661918,56.690624024719 72.52915514592314,55.97224356962397 72.42298003070755,55.573140057393175 72.56233486943529,55.07824846883159 72.60878648234211,54.168277172604576 72.46279569892067,52.81127994925919 72.66187403993536,51.8214532316415 72.55569892473432,49.53841118692799 72.69505376343295,48.17333915733616 75.18353302609466,48.141407321767474 75.45560675883462,48.22123688269494 75.29634408603306,52.01303371410904 75.31625192012143,55.87645893903391 75.62814132105268,55.98820766167046 77.71846390167775,56.03609991551639 77.73837173578067,60.66552621019946 80.58519201228773,60.72937817609636 81.23551459293958,60.450025385420304 81.77966205836856,60.47396995501913 81.9322887864837,60.5298405848589 81.9389247311774,61.59935527500784 83.55145929339778,61.63128082971525 90.05468509984348,59.76361082713993 89.49726574500528,58.26305269618024 89.99496159754199,57.768180564533395 90.29357910906401,56.977974094719684 90.73818740399292,56.48309266802971 91.02353302610572,55.94829742453294 92.2511827956987,54.94255176270235 92.54316436251975,54.52747781439393 92.8086021505369,54.39976224672864 93.27975422426243,53.82503924165212 94.05615975422552,53.162505341882934 94.39459293393884,53.10662869551015 94.48749615975248,52.38821060477494 94.66666666666424,52.236543598883145 94.43440860214469,51.438290657053585 94.54721966205398,49.913601650281635 94.41450076804176,49.09137305441254 93.31956989247556,49.21111569781351 91.66721966206387,50.009394630273164 90.64528417819383,50.161066574262804 89.72288786481658,50.48835751802835 88.93321044547338,50.28080734509422 88.24307219663024,50.44844407214987 87.72546850996878,49.11532159984199 87.66574500766,48.348963986412855 87.7652841781819,48.24518573282694 92.1980952380909,48.22123688269494 92.19145929338993,43.22372670839104 91.0500768049169,39.31168277330289 90.91735791090468,39.24781081140827 84.99809523810109,39.72684907144139 84.95827956988796,39.00030639549368 84.70611367128004,38.401501683583774 84.59330261137802,37.674944924954616 84.05579109062819,36.996286033849174 83.36565284178505,36.74877346777794 79.66279569892504,36.10204285618238 79.43717357911373,36.1739021151152 79.5035330261162,36.59707177471864 79.39072196621419,36.7886949100066 78.55459293394233,37.20387652739737 78.44841781874129,37.37952952968044 78.78021505375364,39.239826811994135 78.73376344085409,39.6869293446216 72.29026113670989,39.73483301400847 72.35662058371963,40.59709332453349 72.18408602150157,41.72280569993745 72.30353302611184,42.25771217781585 72.1575422426904,42.38545041929319 72.21726574499917,43.239693776085915 71.93192012287909,44.21367785547045 70.0605837173498,44.22964469201543 69.08509984639386,44.03804240728641 68.9590168970899,43.70273711732443 68.04325652841362,43.65483622739703 67.25357910904859,43.76660491835355 66.62316436252877,43.606935303949285 65.97284178186237,43.662819711404154 66.02592933947744,46.4489987041452 66.16528417818336,47.5267165817495 65.8932104454725,48.09350954047841 63.33173579108552,48.02964577994135 62.79422427033569,47.21537760585488 62.3761597542325,46.92798652403144 59.7416897081348,46.42504922507942 58.965284178171714,46.137654822341574 58.806021505370154,46.209503536243574 58.66666666666424,46.63261109825544 59.83459293393389,47.43890316795296 61.53339477726695,49.338840953059844 62.40933947771555,52.12478874777298 62.61505376343848,54.26406419480918 62.814132104453165,55.02237338714622 63.67680491550709,56.395290750711865 64.05505376343353,56.79438946698792 64.42666666666628,57.847998892371834 64.96417818740156,57.385051294695586" stroke="#ff0000" stroke-linecap="round" stroke-linejoin="round" stroke-width="0.5"><title>2023-02-26 21.5km</title></polyline><polyline fill="none" points="119.425067682183,32.239200493568205 119.63434562868497,32.239200493568205 119.73898460193595,32.0 120.05290152171801,32.01258951288037 122.28171165208914,35.43688244567602 123.22346241142077,37.94208670392254 124.70933583167789,45.759460514673265 125.0860361353989,46.12450921165873 126.73933191284596,49.05744183243951 128.4240193822916,50.681220014019345 129.26113116835768,52.50636786069663 129.30298675766971,54.63357017344242 128.8111835833406,56.09363742477581 127.18927949786303,57.99421260508825 125.25345849261794,59.56751109894685 124.26985214400338,60.851305670636066 123.80944066167285,62.16025695666758 123.32810138467175,64.95431138181448 123.17114292478072,66.85473048123822 123.55830712581519,67.59726924727147 123.64201830445381,68.0 123.49552374189079,67.86156147330621 123.07696784885775,66.87990137055749 123.21299851410731,66.8924868129834 123.3804208712827,66.41423896800552 123.19207071943674,65.24378135259758 123.68387389373675,63.280404582030314 123.81990455898631,61.79526252167125 124.83490259955579,59.945099323456816 125.36856136318238,59.328371206560405 127.4613408283185,57.66696363587107 128.34030820371117,56.49641111999517 129.2925228603417,54.318897918768926 129.19834778438963,53.09796088036819 129.02046152985713,52.11616643371235 128.57051394484006,51.03366476276278 125.89175622948096,48.0504353308861 124.8976859835384,46.31332701835345 124.74072752363281,45.46993825578102 124.15474927340983,44.450310199281375 123.13975123281125,38.206451597572595 122.54330908524571,36.22999360749236 121.50738324999111,34.2912671355225 120.49238520939252,32.84349411374569 122.35495893337065,35.71384256181773 123.09789564348466,38.00503078500333 123.76758507236082,41.34101450967137 122.62702026385523,36.46918471770914 122.07243370557262,35.260634728598234 120.87954941044154,33.410016306865145 120.45052962009504,33.01974578167574 119.9796542404365,32.10071606195561 117.3636799090018,32.314737381311716 119.58202614205948,32.327326857470325 119.65527342332643,32.125895062767086 119.94826254845248,32.07553705530154 121.4969193526631,34.303856380873185 122.4700618039351,36.05374718672101 123.2653180007037,38.7855343381234 124.41634670655185,44.68948307791288 124.34309942527034,45.70910887332866 124.81397480492888,46.03639412207849 126.70794022087648,48.99450420154608 128.1414941545081,50.54275926193077 128.84257527532463,51.66302752127376 129.14602829779324,52.72034868915944 129.22973947637365,54.6587439141731 128.46587497160363,56.60969095078326 127.0951044219255,58.0949043958899 125.29531408191542,59.50457959971391 124.0501103001443,61.442852930063964 123.42227646059473,64.22434018107015 123.04557615688827,67.21970780139236 123.39088476863981,67.72312276896264 123.09789564348466,67.18195158414892 123.0246483622177,66.45199545387004 123.30717359003029,65.18085316415818 123.34902917932777,64.01038216908637 124.13382147875382,61.09044218737108 125.15928341666586,59.617856271899655 127.0951044219255,58.08231792719016 128.13103025719465,56.87401009348105 128.93675035127671,55.55240790381504 129.22973947637365,54.356658637785586 129.30298675766971,53.09796088036819 128.88443086463667,51.411282858513005 126.11149807331094,48.06302297015645 125.1488195193524,46.46438102574757" stroke="#4dd2ff" stroke-linecap="round" stroke-linejoin="round" stroke-width="0.5"><title>2023-02-19 15.1km</title></polyline><polyline fill="none" points="155.46127946129127,43.63789445158909 155.46127946129127,44.772610632149735 156.06734006735496,46.86370612657629 155.89225589226407,47.106854718891555 153.18518518519704,47.04201513597218 152.0,43.97831028075598 155.12457912458922,42.405906369909644 160.0942760942853,42.16274953400716 162.9090909090737,42.42211681052868 165.29292929291842,43.10295360288001 169.3333333333576,44.82124111807207 170.5723905723862,45.04818316026649 173.60269360269012,44.78882079600589 175.16498316497018,44.28630483467714 176.75420875420969,42.908429146162234 177.3737373737531,41.69264510880748 178.37037037037953,41.092854390095454 182.42424242424022,41.02801199485839 185.91245791246183,45.92352755801403 186.34343434340553,46.68539688788587 185.8316498316417,46.101837776383036 185.72390572392032,45.74521711039415 186.10101010100334,45.7290070582967 187.3535353535408,47.93355674359191 188.0,48.371220526023535 184.6734006734041,57.88601391178963 179.58249158250692,57.54563222177967 176.3905723905773,58.97198800514161 175.5959595959721,58.890945455947076 174.49158249159518,57.821179368605954 173.14478114477242,57.821179368605954 172.79461279459065,57.57804956159089 170.65319865320635,57.12420611476409 171.1784511784499,54.984638432215434 170.85521885519847,52.87745617881592 171.04377104376908,50.105652301965165 171.38047138047114,48.85751199749939 172.90235690234113,46.280147765472066 173.05050505050167,44.98334261470882 170.53198653197614,45.096813549578656 169.4006734006689,44.90229189005913 163.7575757575687,42.616641949440236 162.5319865319907,42.438327249197755" stroke="#4dd2ff" stroke-linecap="round" stroke-linejoin="round" stroke-width="0.5"><title>2023-02-06 7.1km</title></polyline><polyline fill="none" points="30.997311364888446,107.59152261191048 31.824867603863822,106.82562545231485 32.015842120570596,105.88101526074752 31.76120943162823,105.26829295439529 29.957561218499904,104.45132720834226 29.3209794962022,103.32799432307365 30.084877562971087,101.260025510579 29.957561218499904,100.57069822649646 29.130004979495425,99.62606101106212 29.257321323966607,98.19633205667196 28.83293350911117,96.86871822725516 28.705617164669093,93.0390177800291 28.344887522020144,91.86456286819885 28.76927533687558,91.02201524036354 29.681709138822043,90.56244243835681 29.681709138822043,88.67307743533456 30.827556238946272,87.9071139984444 31.442918570508482,81.49844807805493 31.018530755623942,77.33654448299785 32.885837141016964,76.13647167221643 34.20143936711247,76.57054132176563 34.88045987088117,76.31520633821492 34.32875571149634,73.53203567262972 35.9838681894762,72.0 37.2994704155135,74.32358322956134 38.105807263811585,79.35367329925066 38.38165934343124,81.90697422141966 37.78751640263363,84.74110332038254 35.79289367279853,84.91983095079195 32.92827592251706,87.75392098908196 30.891214411181863,87.88158183771884 30.148535735177575,95.13259567054047 30.742678675975185,99.9068995284324 32.22803602798376,103.32799432307365 34.6046077911742,106.87668534644763 34.58338840043871,107.74470172182191 29.851464264822425,108.0 26.85953017004067,107.4638732716412 26.81709138856968,105.90654531956534 25.904657586594112,104.37473651306937 26.0107545403298,100.85153553049895 23.846376684552524,99.31969130788639 22.55199384925072,98.88566682685632 22.12760603436618,97.35380883040489 22.742968365899287,96.46022004249971 22.764187756663887,95.4134399600589 21.618340656568762,92.40072784974473 22.912723491870565,90.69010164690553 26.6473362625984,87.39647021630662 26.85953017004067,86.70709921821253 26.0319739310944,84.84323341277195 27.283917984896107,86.42624374385923 27.559770064573968,88.46882078122871 26.562458699627314,91.07307882537134 26.81709138856968,90.17946436531201 28.38732630352024,88.62201328968513 29.087566198053537,88.49435287345841 29.936341827793512,89.00499409118493 29.893903046264313,90.63903797243256 28.450984475726727,91.71137263190758 29.299760105495807,98.55376517177501 24.589055360556813,99.62606101106212 25.416611599503085,100.11114549626654 26.159290275507374,101.15790308709256 26.13807088480098,103.88966148711916 27.00806590524735,106.26396583025053 26.98684651448275,107.36175374567392 28.939030462875962,106.74903558884398 31.060969537124038,107.33622385679337 31.930964557570405,106.41714587029128 31.930964557570405,105.44700380445283 31.485357351979474,104.80875009775627 30.021219390735496,104.37473651306937 29.3421988869668,103.68541904892481 29.193663151731016,102.66420399624621 30.042438781500096,101.3621478863788 29.80902548332233,100.54516754465294 28.81171411840478,99.80477647299995 27.432453720102785,99.8303072412964 26.329045401478652,101.13237247374491 26.13807088480098,101.97488113924919 26.159290275507374,104.57897830735601 27.220259812660515,107.64258232709835 29.38463766843779,107.1319846380502 30.912433801888255,107.61705247098871 31.994622729864204,106.85115540084371 32.16437785574817,106.28949584442307 31.739990040892735,105.31935321210767 29.44829584067338,103.9917826345627 29.257321323966607,103.14928174101806 29.978780609206297,102.00041165421135 30.106096953706583,101.08131123814383 28.6631783831981,99.80477647299995 27.177821031189524,100.18773768510437 26.0319739310944,101.64298417372629 26.0319739310944,104.01731291406031 26.944407733011758,106.0086655250343 26.83831077927607,107.1319846380502 27.283917984896107,107.59152261191048 28.87537229064037,107.02986495714867 30.891214411181863,107.43834339459136 32.037061511335196,106.5703258029971 32.10071968351258,105.95760542830976 31.612673696421552,105.08958195828018 29.830244874028722,104.42579697958718 29.3209794962022,103.71094936416193 29.38463766843779,102.66420399624621 30.021219390735496,101.46427021439013 29.915122436970705,100.64729025423003 28.705617164669093,99.80477647299995 27.538550673809368,99.80477647299995 26.710994434863096,100.21326840875554 26.0107545403298,101.48980078898603 26.074412712507183,104.55344809344388 26.83831077927607,106.05972560998634 26.85953017004067,107.25963417212188 27.199040421895916,107.4894031456206 29.214882542495616,106.97880509887182 31.167066490859725,107.41281351460202 31.846086994657526,106.69797566485067 31.994622729864204,105.7533649218094 31.782428822363727,105.29382308475033 29.999999999970896,104.45132720834226 29.3421988869668,103.73647967643046 29.236101933260215,103.12375136019546 29.957561218499904,101.71957582591858 29.87268365555792,100.80047422935604 28.960249853582354,99.95796103829343 27.729525190516142,99.70265336976445 26.562458699627314,100.26432984702114 26.0319739310944,101.43873963686929 26.074412712507183,104.34920627539395 26.901968951511662,106.21290579304332 26.96562712371815,107.3872836316441 28.981469244346954,107.00433502951637" stroke="#4dd2ff" stroke-linecap="round" stroke-linejoin="round" stroke-width="0.5"><title>2022-12-04 10.9km</title></polyline><polyline fill="none" points="61.48384801542852,72.93584049804485 61.30007088094135,74.60332319923327 61.44143790748785,74.77347342116991 62.75615125434706,74.70541335624876 62.770287957042456,75.0116833976208 63.5902167109889,74.97765342483763 64.28291514111334,74.314067365558 64.67874281542026,73.41226607641147 64.25464173578075,72.22119920620753 65.31489443490864,72.0 70.23446695876191,72.42538279056316 74.56029797112569,74.28003722972062 76.96353742241627,75.0116833976208 79.91810827725567,74.75645840790821 79.77674125070916,75.77735568128992 79.1264529285836,77.46182052715449 78.03792682415224,78.80597545979253 77.64209914984531,79.75878662800824 77.54314223126858,83.51892697050062 77.81173958166619,85.18628843517217 77.62796244714991,86.51335840037791 76.35565920826048,88.55498087758315 76.15774537110701,89.6098079389485 75.53573045425583,90.88579820156156 75.02680915870587,93.40371951022826 74.40479424188379,94.45851144011249 74.15033359412337,94.0842313074827 74.82889532155241,93.72696301052929 76.25670228968374,94.45851144011249 77.74105606842204,93.42073234390409 80.52598649144056,93.40371951022826 82.74544880824396,95.51329572801478 85.54451593384147,97.24856938089943 86.02516382411704,98.84772482710832 86.3927180931205,99.05187106666563 85.9403436081775,100.77009057305986 85.26178188077756,101.41654414776713 84.18739247898338,101.5526392714819 83.59365096746478,101.99494754491025 83.32505361703807,103.0837006476795 83.74915469670668,103.54301592119737 87.53779100818792,103.45795764654758 90.13894429666107,103.8322136834031 91.00128315860638,103.42393432272365 91.19919699575985,102.76047791996098 91.49606775149005,102.6073721669236 91.51020445415634,102.01195937473676 92.03326245237258,101.65471053078363 89.38969905595877,100.97423411728232 88.65459051789367,101.00825801344763 87.67915803473443,100.42985069668794 87.55192771082511,99.95351353405567 86.42099149842397,99.22199271427235 85.7848398789356,101.12734158754756 83.93293183116475,101.45056794062839 83.48055734625086,101.7397698588029 83.39573713031132,102.96461867359176 82.99990945600439,103.21979421307333 82.15170729669626,104.98899898848322 81.60037589317653,105.49934252511594 81.40246205599396,105.3802625265671 85.98275371614727,100.58295873945463 85.85552339223796,100.99124606636178 85.30419198871823,101.39953224835335 83.97534193916363,101.46757983404677 83.5653775621613,101.82482913718559 83.4240105356439,102.94760695502919 82.9716360506718,103.16875914094271 82.37789453918231,104.75083805929171 81.48728227193351,105.6014110178221 81.31764184005442,106.99633991405426 80.83699394980795,107.72782167725381 79.90397157456027,108.0 78.85785557815689,107.8298886079283 78.32066087727435,107.47265403767233 76.4687528295035,107.57472114714619 75.38022672507213,105.4312968235754" stroke="#4dd2ff" stroke-linecap="round" stroke-linejoin="round" stroke-width="0.5"><title>2022-11-01 7.6km</title></polyline><polyline fill="none" points="131.7062961148331,107.66579706972698 134.20628026290797,106.56769980420358 137.53959246026352,107.37933719778084 139.40465999930166,105.42185603515827 138.2538736453862,103.08241503639147 135.15865517640486,101.93656150065362 133.84913967025932,100.21777517572627 133.76977509417338,98.88093637255952 135.2380197524908,95.9685224177083 133.29358763742493,93.05608771755942 133.8888219583896,90.43010421888903 132.7777178925462,88.09057744106394 132.85708246874856,80.2602271657961 132.30153043579776,78.2548694369907 132.73803560447413,77.25218688399764 134.80151458375622,76.01076698256657 134.60310314345406,73.0504427748092 132.73803560447413,72.0 127.65870273229666,78.0638824737398 125.31744773651008,79.59177568252198 123.73015621391824,77.58641467493726 122.73809901240747,77.44317422655877 120.03970342391403,79.68726881846669 117.14289639529306,78.78008312630118 113.09530301275663,79.78276193203055 109.76199081540108,84.6051351679489 108.57152217347175,90.04814157768851 109.72230852738721,94.20196614068118 107.30168895539828,97.40085974210524 110.71436572889797,100.0745426559588 118.05558902071789,100.0267984715174 123.13492189289536,101.3158894944936 126.74601010675542,104.13277795680915 127.85711417259881,108.0 131.34915552218445,107.95225674106041 131.50788467441453,107.18836383838789 133.09517619700637,106.61544322481495 136.03166551381582,107.37933719778084 137.77768618857954,107.14062048456981 138.96815483050887,105.66057375178207 138.88879025442293,103.79857186580193 134.80151458375622,101.65009761482361 133.84913967025932,99.6448447954026 135.35706661670702,96.39822414185619 134.99992602417478,94.82264894543914 133.3332699254388,92.86510766818537 133.7300928060431,90.52559482349898 132.7777178925462,87.94734067286481 133.17454077320872,85.56005381437717 132.18248357152333,77.96838895842666 132.42057729989756,77.15669317924767 134.44437399122398,76.24950187187642 134.8411968719447,74.29187166522024 134.32532712700777,72.76395864930237 132.81740018056007,72.14324235540698 129.80154628766468,74.96033181415987 128.05552561290096,77.87289542111102 125.55554146494251,79.54402910603676 126.90473925910192,82.98176835052436 122.77778130042134,85.98976647760719 120.95239604945527,88.52028744461131 118.96828164620092,89.95265086158179 116.42861521011218,94.24971100519178 110.35722513624933,95.39558608294465 107.2620066673262,97.30537074309541 110.91277716920013,99.88356588466559 119.60319825529587,100.12228683472495 122.89682816463755,100.83844884869177 124.6031665513292,100.40875179087743 125.6745883289841,98.26025972818024 125.6745883289841,93.67677226208616 129.56345255940687,91.91020608317922 131.30947323417058,90.04814157768851 131.46820238640066,87.08791900947108 130.51582747290377,85.27357845474035 125.23808316042414,84.46189717878588 123.53174477361608,85.32132436189568 120.71430232102284,85.36907026360859 118.37304732523626,87.61312135180924 118.96828164620092,83.98443685186794 118.29368274915032,81.45388781055226 116.2698860578821,80.11698765415349 114.08736021426739,80.35572014562786 111.54769377829507,82.93402217005496 110.0000845437171,88.09057744106394 110.39690742443781,91.86246094526723 112.10324581124587,94.15422127034981 114.64291224721819,94.48843524453696 116.42861521011218,93.53353745074128 118.49209418956889,87.61312135180924 119.08732851041714,84.07992896184442 118.33336503716419,81.83585848088842 117.10321410722099,80.49895957350964 114.76195911155082,79.97374809256871 112.34133953950368,81.74036584675196 111.07150632154662,83.60246818885207 110.0000845437171,88.04283185713575 110.39690742443781,91.95795121541596 111.30960004986264,93.58128239345388 112.65879784402205,94.24971100519178 115.317511144327,94.29745586428908 116.46829749824246,93.34255762438988 118.29368274915032,87.99508626779425 119.0079639343312,82.93402217005496" stroke="#4dd2ff" stroke-linecap="round" stroke-linejoin="round" stroke-width="0.5"><title>2022-10-15 8.0km</title></polyline><polyline fill="none" points="154.95978552271845,95.01370542604127 153.6407506702235,94.23942661265028 152.0,95.09113320789766 152.09651474526618,98.03337551213917 153.6407506702235,101.32401030039182 154.79892761388328,101.36272345640464 164.64343163539888,97.06553553216509 165.15817694360157,94.31685457541607 166.02680965140462,93.00057674807613 165.5764075065963,91.68429369217483 166.2198391420534,87.0385469951434 166.95978552277666,85.52866529408493 168.63270777481375,84.25106771165156 169.9839142091223,78.79218618691084 170.85254691686714,78.01786946758511 171.88203753350535,77.97915358399041 175.51742627343629,82.27658903124393 175.06702412874438,86.03195995889837 173.49061662197346,87.11597664043074 170.98123324400513,87.11597664043074 170.0482573726331,87.73541315205512 169.30831099190982,89.1678556498664 169.4369973190478,90.48414870182751 167.7962466487661,92.0714363102743 166.6702412868617,95.12984709205921 164.93297587125562,96.79453983125859 164.90080428950023,95.43955800237018 166.0911528149736,93.23286145049497 165.5764075065963,91.68429369217483 166.02680965140462,86.8449728024716 166.95978552277666,85.41252026284928 168.69705093832454,84.25106771165156 169.91957104561152,79.21805961127393 171.49597855220782,77.97915358399041 174.10187667561695,80.37952980454429 175.4530831099255,82.85731927640154 175.06702412874438,85.60609529228532 174.3914209114737,86.76754309391254 170.94906166213332,87.58055413264083 169.75871313665994,88.43227784338524 169.3404825736652,89.59371573888347 169.88739946385613,92.14886477962136 171.23860589810647,92.45857847595471 173.55495978554245,91.87786505784607 177.5442359248991,92.34243587378296 179.3780160858296,91.72300797430216 184.7506702413084,92.57472103755572 187.4209115281701,89.78728832563502 188.0,88.27741914973012 187.64611260057427,87.46440982064814 182.17694369977107,85.76095523437834 180.3431635388988,85.76095523437834 176.064343163569,82.23787364541204 174.80965147452662,86.3803942790255 173.61930294905324,87.15469145638053 170.91689008043613,87.46440982064814 169.66219839133555,88.3935631767381 169.3404825736652,90.83257834048709 170.27345844503725,92.38115007901797 171.1742627345957,92.7295777228428 173.42627345840447,92.03272206877591 174.23056300263852,92.65214938929421 176.96514745306922,92.7295777228428 179.3780160858296,91.76172225200571 184.30026809655828,92.80700603837613 186.68096514744684,90.48414870182751 187.4852546916809,88.35484850549255 187.29222520114854,87.58055413264083 182.30563002679264,85.91581510400283 180.50402144773398,86.07067490139161 177.47989276144654,83.08961108935182 175.80697050935123,82.31530441262294 175.13136729219696,86.03195995889837 173.61930294905324,87.15469145638053 170.85254691686714,87.46440982064814 169.72654155496275,88.35484850549255 169.27613941021264,89.24528479765286 169.56568364612758,91.49072221358074 169.75871313665994,92.18757900747005 171.33512064343086,92.92314847774105 175.87131367292022,92.03272206877591 178.252010723867,92.30372166392044 170.98123324400513,92.88443433586508 170.08042895438848,92.45857847595471 169.37265415553702,91.02615020354278 168.76139410183532,90.94872147173737 165.80160857905867,96.36868899629917 164.73994638072327,96.98810821174993 164.70777479890967,99.42706011721748 163.9356568363728,101.13044445269043 162.71313672920223,102.02084641600959 158.5630026809522,101.74985476728762 162.00536193023436,102.02084641600959 164.12868632702157,100.47231972459122 164.35388739942573,100.74331241796608 163.19571045564953,101.86599407251924 158.62734584446298,101.9821333369182 155.05630026804283,101.13044445269043" stroke="#4dd2ff" stroke-linecap="round" stroke-linejoin="round" stroke-width="0.5"><title>2022-10-11 7.5km</title></polyline><polyline fill="none" points="23.938658146973467,132.39489757586853 23.386581469676457,131.14928064683045 23.593610223644646,130.42958788109536 26.60702875399147,130.955517424969 29.41341853037011,130.78943453716056 30.81661341851577,129.82061537184927 31.276677316287532,125.80689377176168 32.196805111831054,124.36747359934088 32.15079872205388,120.10452409756545 34.31309904155205,117.94533859299554 34.86517571887816,114.98334697788232 35.5552715655067,114.20824025507318 36.61341853038175,114.20824025507318 40.892012779571814,117.5577903938538 41.16805111823487,118.41593198257033 42.410223642218625,119.24638862504798 48.0,120.38134132887353 46.94185303518316,123.28790273134655 46.20575079874834,123.86921073310077 44.3654952076904,123.97993590502301 39.879872204503044,123.3986281749676 36.337380191718694,124.00761718991271 35.164217252400704,123.50935356687114 34.75015974440612,121.51628859600169 35.90031948880642,120.6581582367653 38.08562300322228,120.24293275372474 38.63769968051929,119.57857046695426 38.91373801915324,117.1702415607142 36.72843450482469,114.1251929558639 35.64728434506105,114.01446317815862 35.003194888238795,114.70652343943948 34.29009584663436,117.3640160565119 34.54313099043793,118.0283845532249 34.497124600660754,117.11487739000586 34.175079872249626,118.30520421027904 32.40383386579924,119.74466121329169 31.94376996808569,123.20485861469933 32.196805111831054,124.56124220884521 31.48370607031393,125.75153161917115 31.39169329078868,127.08021971178823 31.89776357827941,127.05253878590884 32.61086261976743,126.1390664158389 33.27795527156559,124.118342297239 34.4051118210773,122.95572609001829 35.04920127795776,123.84152943198569 35.99233226836077,124.31211111047014 40.9150159744313,124.06297975007328 45.653674121393124,124.53356098863878 46.57380191687844,123.75848550937371 47.72396166136605,121.1010646167415 47.56293929714593,120.24293275372474 43.07731629392947,119.38479778243345 39.14376996803912,116.47818849628675 38.4076677315752,119.6339340620325 37.257507987262215,120.27061447521555 35.92332268372411,120.38134132887353 34.84217252393137,121.21179108228534 34.635143770021386,122.84500043942535 35.233226837037364,123.75848550937371 36.17635782752768,124.14602356594696 40.892012779571814,124.118342297239 44.618530351435766,124.671967057453 46.61980830671382,123.75848550937371 47.90798722047475,120.85192987982009 47.65495207672939,120.21525102893065 44.27348242816515,119.30175229770248 42.96230031948653,119.32943412923487 39.373801916925004,116.53355281591939 38.729712460102746,117.66851851544925 38.56869009588263,119.46784323803149 34.88817891373765,120.90729317741352 34.65814696488087,122.67891186646011 33.36996805109084,123.95225461691734 31.89776357827941,126.74804838719137 32.35782747602207,128.7133886180818 33.254952076706104,129.76525415711512 37.83258785941871,131.97969266044674 35.67028753994964,131.95201230687962 33.715015974477865,132.97618323513598 33.438977635785704,134.3048308159341 32.03578274761094,136.1593889406504 32.17380191697157,136.6853057672124 30.563578274770407,138.31840847292915 29.252396166149992,137.59873748123937 28.056230031972518,137.48801867317525 27.04408945684554,138.2076900011598 24.122683706053067,137.90321393680642 22.558466453687288,137.1005024373735 20.810223642154597,137.18354168406222 18.46389776354772,137.87553427513922 17.474760383396642,138.76128184309346 17.152715654985514,140.31133212018176 16.209584664582508,141.22474985715235 16.393610223662108,141.69529701424472 14.07028753994382,143.27300713428122 13.978274760418572,144.7953490471118 13.196166134177474,145.98553682182683 12.0,145.68107075075386" stroke="#4dd2ff" stroke-linecap="round" stroke-linejoin="round" stroke-width="0.5"><title>2022-03-25 8.5km</title></polyline><polyline fill="none" points="64.56786925686174,138.0412736358703 65.8200431699006,140.03606965662766 66.5660191181014,140.64491151947004 66.63262411347387,140.86922031889117 67.07887758246943,141.3498795650885 67.0588960838868,141.59020792676893 67.74492753623781,141.81451363890665 68.11125501080096,142.06285125145223 68.39099599135807,142.37527471442445 69.15029293864063,142.7918371210617 69.45667591736128,143.16834327645483 69.41671292013052,143.24043996440014 70.1293863706378,143.80118939832028 70.33586185630702,143.95339202618925 70.47573234658921,143.90532807487034 72.48720320691064,141.5020876251001 72.52716620413412,140.27640261568013 72.38729571383737,139.73164670116967 72.54714770274586,139.03467327439284 72.42059821153816,138.63411063294188 72.59377119950659,136.4389858732975 72.56712920135033,133.98741323402646 72.72032069071429,132.64942653978505 72.59377119950659,131.55978937049076 72.5804502004321,129.7169812750799 72.78026518655679,128.28276161583926 73.37304964539362,128.0343741617471 74.03909959914017,127.95424898483179 74.38544557509158,128.0584116965765 75.42448350292398,128.0503991858859 75.4777674992365,128.14654925229843 75.39118100523046,131.49569252791116 75.26463151402277,132.23280260519095 75.39118100523046,135.87817632380757 75.61097748998873,136.02238493111508 77.52920135678141,135.90221111273422 77.84224483502476,136.0784659744022 77.7489978415033,137.68877353573043 77.81560283686849,140.67695567852934 80.37323465926602,140.7891101174755 81.37230958989676,140.49270155974955 81.95843354918179,140.4686683773907 82.03835954364331,140.5648010563964 81.95177304963727,141.52612044586567 82.04502004317328,141.67031719376246 83.4637064446506,141.69434995565098 86.56083872956515,140.9333084127502 90.21745297564485,139.7957358565618 89.77119950663473,138.47388492218306 90.71699044095294,136.58319330287486 92.07573234658776,135.1170703236785 93.86074622262822,133.49067870185536 94.50681467776303,133.05803602011292 94.61338267037354,132.39304287920095 94.66666666666424,130.7425501450125 94.55343817452376,129.12406728348287 93.54770274438488,129.22021584620234 92.54862781375414,129.74101822078228 90.09756398396712,130.41404928398697 89.14511255011166,130.30187789829506 88.59229108849831,130.42206151881692 87.81967314216308,128.803571101962 87.7863706444623,128.38692382913723 87.8929386370728,128.25071167227725 92.30218933086144,128.18661174023146 92.40875732346467,126.95267638287623 92.34881282762944,123.10650178794458 91.33641689793149,119.66078736034251 91.15658341042581,119.27613873762311 91.01671292014362,119.2280575081968 85.13549182855786,119.67681433950202 85.03558433549915,119.5485984013867 85.04890533458092,118.7873113356327 84.67591736047325,117.46505583454564 84.18970089423237,116.95217411626072 79.75380820227292,116.04660797381075 79.54067221708829,116.13476095515216 79.40746222634334,116.7598424837197 78.56823928460653,117.25669809878309 78.58156028369558,118.16224827370752 78.86130126425269,119.19600333656126 78.78803576935024,119.66078736034251 72.81356768424303,119.66880085037701 72.36065371569566,119.77297613587871 72.29404872031591,121.92055448458996 72.19414122727176,122.01671313740371 72.05427073696046,123.42702456880215 72.18748072772723,123.74754585295159 72.09423373419122,124.26838974760904 69.30348442799732,124.06005266399734 69.12365094048437,123.73151982431591 68.90385445574793,123.66741567223653 66.53937711994513,123.5952984296091 66.04650015417428,123.66741567223653 66.05982115325605,126.61614470877976 66.02651865555526,127.89014877598675 65.9332716620338,128.08244922300946 63.408942337337066,128.0343741617471 63.062596361407486,127.78598580893595 62.87610237433546,127.26516860302218 62.196731421528966,126.82447403488914 60.897934011714824,126.64819541550969 58.98637064446666,126.15942051233287 58.81319765648368,126.23153506116068 58.66666666666424,126.61614470877976 59.71236509404844,127.28920640720753 61.45075547332817,129.20419109511568 62.476472402100626,132.31292278892943 62.57637989516661,134.28384987169557 62.78951588035852,134.98087151800428 64.08831329016539,136.90365317329997 64.50126426148199,137.86502381196624 65.05408572310262,137.3763287525071" stroke="#ff0400" stroke-linecap="round" stroke-linejoin="round" stroke-width="0.5"><title>2022-02-27 21.3km</title></polyline><polyline fill="none" points="119.4791858952376,119.19212365543353 121.2110054489458,118.04793205799069 121.24496269511292,115.71867331085377 122.19576558738481,113.02161748622893 124.40298658714164,112.0 126.10084889474092,115.55521597425104 128.03641192539362,117.35324247603421 128.30806989461416,119.31471539032646 126.61020758701488,120.82667658699211 123.38426920265192,121.31704097692273 122.53533804888139,122.1343134320341 122.50138080265606,123.93230611138279 121.58453515655128,125.40338415585575 122.26368007966084,126.95618204586208 133.12999884813325,126.71100388999912 136.86529592477018,127.40567488523084 139.07251692464342,126.6701408472145 136.79738143249415,127.07877105928492 133.50352855579695,126.38409941474674 123.79175615648273,126.95618204586208 122.22972283349372,126.50668862872408 121.48266341816634,124.17748621516512 121.72036414121976,122.95158397758496 123.68988441803958,121.72567744317348 126.94978004856966,120.90840403304901 127.56101047928678,119.76421805040445 127.7987112023402,116.4542303805647 124.98025977174984,112.44951206148835 123.14656847954029,112.08172950873268 121.89015037188074,113.43026364516118 120.97330472589238,118.2113882296253 118.1208960491349,120.82667658699211 117.3398793876404,125.68942639039597 118.01902431069175,128.100344500941 116.79656344925752,129.40795415217872 116.69469171075616,131.4919469296874 118.46046851068968,130.59297117605456 119.54710038751364,127.16049704453326 121.04121921822662,125.44424734645872 122.60325254115742,127.03790805957397 123.96154238726012,127.24222301057307 133.26582783274353,126.71100388999912 136.55968070944073,127.20136002989602 138.49524374009343,126.95618204586208 139.68374735536054,125.89374212909024 138.25754301704,126.91531903183204 133.50352855579695,126.17978396260878 123.62196992564714,126.71100388999912 122.26368007966084,126.38409941474674 121.2110054489458,124.9947519862908 119.2754424182931,126.79272996095824 118.80004097218625,129.0810521976964 116.55886272614589,131.20590944052674 116.66073446458904,129.65313041754416 117.98506706458284,128.42724737199023 117.37383663380751,125.19906813077978 118.1208960491349,120.49976661187247 120.80351849511499,118.49743634628248 122.29763732582796,113.02161748622893 124.1313286179793,112.04086475679651 127.83266844844911,115.96385917268344 127.39122424850939,120.21372013294604 125.69336194096832,121.56222291404265 123.31635471037589,121.48049562066444 121.61849240277661,123.15590131565114 122.09389384888345,126.6701408472145 123.48614094109507,127.24222301057307 133.6054002942401,126.6701408472145 136.86529592477018,127.24222301057307 140.90620821685297,126.17978396260878 140.43080677074613,131.9414339401992 138.08775678626262,134.31144680664875 137.06903940165648,136.68144361424493 134.31850246345857,139.70520933094667 130.37946190981893,139.58262474273215 125.79523367941147,138.3976381747052 122.80699601804372,138.47936151520116 121.24496269511292,139.1331475515908 120.32811704900814,139.90951688264613 119.75084386439994,142.19775330790435 117.61153735680273,145.017166890495 117.91715257219039,145.83438397067948 117.44175112608355,146.56987771048443 115.74388881854247,148.0 113.60458231094526,146.40643479084247 111.26153232651995,146.48815626034047 110.41260117269121,147.4279517858813 109.15618306508986,147.75483659413294 106.81313308072276,147.30536990388646 105.7604584498913,139.70520933094667" stroke="#4dd2ff" stroke-linecap="round" stroke-linejoin="round" stroke-width="0.5"><title>2022-02-20 7.7km</title></polyline><polyline fill="none" points="152.2727272727061,135.66152094485005 152.0,136.3589196317771 152.8522727272357,137.34348012582632 154.21590909082443,141.48680861879257 163.45454545447137,142.79953616092098 164.81818181811832,142.02010477462318 166.55681818176527,134.38979036186356 167.6477272726479,132.62576934706885 167.2727272727061,129.46691887525958 168.05681818170706,125.2824238447065 170.78409090900095,122.41068271335098 171.63636363635305,118.4722566815326 173.06818181811832,117.24148948662332 176.9204545454122,122.16453238070244 176.75,125.61062133565429 175.8977272727061,126.51316285380744 173.23863636364695,126.55418741321773 171.9772727272357,127.29262866170029 170.88636363629485,129.138724988763 170.75,130.69764321733965 169.0454545454122,132.29757841318497 168.3977272727061,134.80002653691918 167.06818181817653,136.6871067697939 166.35227272717748,136.72813014042913 166.35227272717748,135.57947394944495 167.47727272717748,133.65136403864017 166.795454545354,131.47709973625024 167.375,126.84135919448454 170.51136363635305,123.4363072422857 171.63636363635305,118.39020566942054 173.375,117.20046383910812 177.2954545454122,121.75428144264151 176.23863636353053,126.1849662065797 172.5227272727061,126.67726106243208 171.53409090905916,127.90799518255517 170.95454545452958,129.50794308944023 171.46590909082443,131.92836324573727 173.40909090900095,132.66679319224204 182.5454545454122,131.9693871724303 185.98863636364695,132.95395997422747 188.0,132.3796261753305 187.21590909088263,132.87191234630882 183.05681818182347,132.0514350113517 172.38636363629485,132.8308885251172 171.0227272727061,131.14890772860963 170.20454545447137,131.1078837061359 168.9772727272357,132.3796261753305 167.9204545454122,135.12821513204835 166.1477272727643,136.76915350637864 166.21590909082443,135.45640342039405 167.47727272717748,133.0770313804387 166.82954545447137,131.39505176310195 167.34090909088263,126.96443274297053 168.3977272727061,125.03627552516991 170.34090909082443,123.23118257615715 171.7727272727061,118.1030269760522 173.8522727272357,117.20046383910812 177.0227272727061,121.1799293239892 177.05681818176527,125.1593497065187 176.545454545354,126.10291699678055 177.26136363635305,122.61580785881961 176.40909090900095,120.60557626603986 173.98863636358874,117.69277129229158 171.84090909082443,117.93892476012115 170.20454545447137,123.64143178850645 167.8522727272357,125.36447324621258 167.23863636358874,126.51316285380744 166.93181818170706,131.47709973625024 167.34090909088263,133.11805517284665 165.94318181817653,135.12821513204835 165.9772727272357,136.60506001402973 166.82954545447137,136.60506001402973 168.2272727272357,134.67695573484525 168.80681818176527,132.74884086832753 170.920454545354,130.45149869396118 171.70454545447137,128.03106835726066 173.03409090905916,126.88238371544867 175.3522727272357,126.55418741321773 176.88636363629485,124.87217654971755 177.26136363635305,122.12350730839535 174.63636363635305,118.30815463818726 173.545454545354,117.44661765202181 171.56818181811832,118.02097587764729 170.03409090894274,123.88758108593174 167.81818181817653,125.56959666599869 167.23863636358874,127.08750624849927 170.34090909082443,123.10810771895922 171.53409090905916,118.43123117790674 173.40909090900095,117.28251512921997 177.05681818176527,121.26197968417546 176.61363636358874,125.36447324621258 175.6249999999418,126.6362365175155 173.03409090905916,126.6362365175155 172.11363636364695,127.45672650600318 170.78409090900095,130.533546887571 165.73863636358874,136.11277907688054 166.01136363635305,134.43081400092342 167.2727272727061,133.2411265214614 166.86363636358874,131.06685967877274 167.57954545447137,125.81574461169657 170.20454545447137,122.77990788893658 172.0454545454122,117.97995032119798 173.61363636358874,117.32354076721822 176.95454545447137,121.59018093315535 176.68181818182347,125.65164600039134 175.59090909088263,126.71828560269205 173.2727272727061,126.67726106243208 172.0454545454122,127.4157020522398 170.95454545452958,129.01565220224438 170.8522727272357,130.41047458996763 169.1477272726479,131.9693871724303 168.19318181811832,134.266719415813 168.67045454547042,132.17450673377607 170.75,130.12330572781502 172.11363636364695,127.12853074079612 175.93181818182347,125.979843146255 177.2272727272357,123.02605779023725 177.2954545454122,122.000432062865 176.1704545454122,120.11327289693872 173.92045454547042,117.56969449383905 171.73863636358874,118.02097587764729 171.05681818176527,120.3183993845596" stroke="#4dd2ff" stroke-linecap="round" stroke-linejoin="round" stroke-width="0.5"><title>2022-02-05 10.0km</title></polyline><polyline fill="none" points="13.639024390256964,161.1945033064767 13.100487804884324,162.16672283896332 13.42829268296191,161.78629004267714 14.423414634162327,161.85674065106286 14.786341463419376,160.79997720168467 15.43024390246137,161.02542084827292 15.57073170732474,162.321713633959 16.039024390251143,163.09666462011228 17.806829268301954,164.12522823505424 18.907317073171725,164.3788453119414 19.07121951218869,164.90016762771847 19.64487804878445,165.26650087933376 19.64487804878445,165.61874334076128 20.218536585365655,166.67546454996045 19.703414634161163,166.84453908392607 19.082926829287317,167.71808706523734 18.439024390245322,167.4644770130326 18.50926829269156,166.87271814982523 18.087804878043244,167.11223994437023 17.350243902445072,166.5063897789296 17.268292682943866,166.94316578586586 17.841951219525072,167.33767178686685 17.53756097560108,167.60537155233033 17.15121951220499,167.60537155233033 15.418536585362745,165.8441779759305 15.25463414634578,165.37921857896436 13.76780487805081,164.18158763155952 12.339512195147108,164.97061641640903 12.0,164.87198810071277 12.25756097563135,165.85826762663055 12.936585365867359,166.97134482875845 13.603902439033845,167.56310320783814 16.542439024400664,168.02805418236676 18.532682926830603,169.07066500054498 19.399024390266277,169.02839716977178 19.96097560976341,168.64798602579685 21.260487804873264,169.09884354619135 21.705365853660624,170.3668712830913 23.063414634147193,171.45172887241642 23.85951219513663,172.83244259604544 24.011707317069522,173.4946160170657 25.603902439033845,175.08663510503538 25.685853658549604,175.76288464010577 25.369756097570644,176.79134020468337 24.796097560974886,176.90404713051976 24.62048780490295,177.34078547298122 23.789268292690394,177.98884590488888 24.280975609755842,178.22834561787022 25.873170731705613,178.24243382149143 26.868292682935135,179.1299873298267 27.137560975621454,178.69325546752225 27.898536585387774,178.39740395242552 28.48390243902395,178.58055021399923 29.198048780468525,178.2565220234319 30.02926829268108,178.55237388415844 30.579512195152347,179.2286039830651 31.855609756094054,179.38357284663653 32.979512195131974,179.9330063036905 33.8458536585531,180.045710293125 34.39609756098071,181.0036899506813 35.13365853660798,180.38382162951893 36.3629268292716,180.72193201786285 36.784390243919916,181.03186570777325 38.20097560976865,181.06004145825136 38.51707317074761,181.5108525707983 39.44195121950179,181.55311602618167 40.17951219511451,180.84872316908877 41.01073170734162,180.5669648742478 41.771707317078835,178.9327537814097 43.63317073172948,178.39740395242552 43.69170731709164,177.76343397583696 44.18341463414254,177.5380216253252 45.55317073169863,178.14381636177131 47.59024390243576,177.1153723324751 47.13365853660798,175.73470765184175 46.50146341465006,175.15707794191258 47.2507317073032,172.93106439985422 47.23902439023368,172.18435444983334 48.0,170.95861299645912 47.85951219512208,170.1414451045639 47.54341463415767,169.9019293280653 47.2507317073032,169.1552006176862 47.707317073174636,168.74661125247803 47.80097560975992,168.30984177910432 47.23902439023368,167.42220861912938 46.34926829271717,167.2249559182892 46.548292682899046,166.88680768034828 46.1853658536711,166.57683762900706 46.09170731708582,165.32285974235856 45.799024390245904,164.56201286893338 45.611707317089895,164.46338421897963 45.15512195121846,164.67473122725642 42.954146341464366,163.88570050585986 41.97073170733347,164.01250936293218 41.43219512197538,163.87161062457017 41.10439024391235,164.22385716169083 39.85170731708058,164.19567747659312 39.53560975611617,164.82971879783145 39.465365853655385,164.5479230667479 39.957073170749936,164.16749778491794 39.945365853680414,163.98432962844527 38.915121951227775,163.5475429014623 37.650731707326486,163.32210397158633 37.2175609756232,162.9416748214353 36.526829268288566,164.05477895231888 37.24097560974769,162.61760459844663 36.99512195121497,162.321713633959 36.44487804878736,162.39216392951494 36.257560975602246,162.67396469982486 34.85268292683759,162.2794434369207 34.43121951221838,161.91310110813356 33.763902439022786,162.09627241169073 33.14341463414894,161.54675766608125 32.440975609759334,161.54675766608125 29.572682926838752,160.8563381528511 28.565853658525157,159.99683078433736 28.07414634147426,160.1236437323023 24.702439024404157,159.4473064682461 22.922926829298376,158.44688397381105 21.014634146355093,158.51733653395058 19.539512195115094,159.03868419896025 16.858536585379625,159.22185987024568 15.921951219512266,159.7572948519737 15.5239024390321,160.3349983490989" stroke="#4dd2ff" stroke-linecap="round" stroke-linejoin="round" stroke-width="0.5"><title>2022-01-23 10.2km</title></polyline><polyline fill="none" points="66.58785756569705,188.0 66.45676364471728,188.0 66.4644750518346,187.71146950911498 66.64183741550369,187.67423969149968 66.85004540764203,187.26471053834393 67.28188420616789,186.90171701198415 67.62889752638876,186.83656415100268 68.23809868856915,187.45086041690956 68.73934015113628,187.23678801868664 69.11719909984095,187.5625501332397 69.35625272043399,187.5625501332397 69.81122574028268,187.4136304763233 70.72117178002372,186.6317976662176 72.05524521112966,186.55733699454868 73.46643271340872,185.58003416501742 74.51518408123229,185.26357160655607 76.15771379698708,185.1611863894068 76.40447882472654,184.881953303724 76.57412978126376,184.10940328388824 76.14229098275246,183.07622215684387 76.04975409735925,182.29434636405495 76.3504989748908,181.31699072601623 76.34278756778804,180.5257891980873 75.63333811308257,178.1893713123136 75.13209665053,175.8249576637827 74.80050614452921,175.24780656291114 75.0395597651368,174.30759975841647 75.72587499846122,173.7862921459673 76.20398223969096,173.66527381461492 77.13706250075484,173.72112845214724 78.76416940228955,174.05625544684153 79.24227664351929,173.87938304375712 79.55844433525635,173.64665559330024 79.68953825625067,172.2223486348812 80.19077971880324,172.0827093133339 80.63804133153462,172.26889502045378 81.48629611433716,172.0734000164448 82.5427588892635,171.22624939937668 82.67385281024326,170.69561196029827 82.39624215406366,168.52647793319193 82.00296039113891,167.21379703382263 82.20345697614539,166.97174001379608 81.94126913420041,165.6962734437111 82.08007446228294,164.21596155836596 83.56837603573513,164.77457308168232 84.36265096870193,165.28663016840437 84.70195288182003,165.14697856541898 85.15692590166873,164.26251266977488 85.26488560131111,163.49907097197138 84.70195288182003,162.68906986952788 84.71737569605466,162.33527367359784 85.06438901630463,161.80457640310487 86.19025445525767,161.0690427011359 86.87656968862575,160.30557008212054 86.43701948299713,159.76554839983874 85.40369092940819,159.80279139321647 84.65568443913071,159.40242829233466 84.79448976722779,159.0951715104893 84.70966428893735,159.02999567555526 84.39349659718573,159.1417256453351 84.38578519006842,158.86240042404097 85.37284530095349,156.32980658732413 85.48851640768407,155.65008924648282 85.33428826535237,155.1193469742284 84.77906695296406,154.59791249012778 82.99002050200943,154.31857116916217 82.66614140312595,154.11372023800504 82.48106763233955,153.74126263571088 86.06687194140977,152.0 82.50420185369148,153.79713138822262 82.72783266006445,154.17890013747092 83.05942316605069,154.35581673582055 84.60941599642683,154.51411019777152 85.24175137997372,154.99829999069334 85.44224796499475,155.48248680972029 85.32657685824961,156.35774005133135 84.40120800428849,159.12310399470152 84.7405099174066,159.05792818286136 84.60941599642683,159.38380670329934 85.34971107960155,159.8307236266919 85.99746927736851,159.8307236266919 86.30592556201736,159.67244083938567 86.84572406014195,160.3428128204032 86.359905411824,161.0224897043081 85.09523464475933,161.90699194397894 84.64797303202795,162.52148239566304 84.60941599642683,162.7356218823843 85.11065745896485,163.2942438929822 85.2031943443726,163.5735534142077 85.07210042340739,164.43940664258116 84.62483881067601,165.16559879344277 84.30095971177798,165.36111092221108 83.53753040726588,164.82112386333756 82.16489994057338,164.24389222850732 82.00296039113891,164.34630460108747 81.84873224879266,165.5566225661969 82.14176571923599,166.97174001379608 81.95669194843504,167.2044871621547 81.94898054130317,167.5955008250021 82.25743682596658,168.47992933877686 82.56589311061543,171.09591772755084 81.53256455702649,171.98961629496625 79.76665232740925,172.2223486348812 79.62784699929762,172.44577103514166 79.52759870680165,173.62803736759815 79.24998805062205,173.8607648729958 78.63307548130979,174.02832825166843 77.13706250075484,173.59080090300267 75.87239173369016,173.66527381461492 75.03184835803404,174.19589127438667 74.72339207335608,174.9871562943954 75.6179152988625,178.6082561040239 76.23482786814566,180.02313939957094 76.39676741759467,181.26114146668988 76.10373394718044,182.04302749929047 76.06517691160843,182.80628972324484 76.37363319624274,183.7184714756877 76.57412978126376,183.95116921389854 76.36592178912542,184.8261065679908 76.04975409735925,185.13326312531717 74.69254644488683,185.12395536842814 73.59752663438849,185.45903392490436 71.91643988303258,186.54802940564696 70.70574896577455,186.48287625260127 69.8266485545173,187.31124804917636 69.14033332117833,187.57185760248103 68.77789718672284,187.09717527215253 68.21496446723177,187.39501549944544 67.59034049081674,186.6783355503503 67.25103857768408,186.79002636019868" stroke="#4dd2ff" stroke-linecap="round" stroke-linejoin="round" stroke-width="0.5"><title>2022-01-15 15.0km</title></polyline><polyline fill="none" points="141.33333333332848,161.099484588005 140.20614886729163,161.42643119998684 135.1207119741157,163.74666312783665 134.8148867313721,164.08414639212424 133.87993527506478,164.379443203361 133.63527508090192,164.64310024637962 133.47799352750008,165.99301212572755 132.8139158575941,166.69959849910083 133.08478964399546,167.50109270072426 133.7139158575883,167.77528643614642 133.9847896440042,168.4291296429583 134.67508090611955,168.76659523387934 134.86731391584908,169.34661124263948 135.37411003233865,169.49425108051946 135.95080906146904,170.41172175166867 135.75857605175406,171.94081861876475 134.86731391584908,172.5840860390599 134.33430420710647,172.6473579943995 133.976051779915,172.45754199409566 132.18478964400128,173.54370588550228 122.2760517799179,174.41895456850762 120.04789644012635,175.26255964983284 119.13042071195378,175.03056904576806 118.22168284788495,175.1360193949513 117.9158576051559,175.02002400399215 117.26051779933914,175.5156396224702 116.34304207119567,175.24146961979568 114.33333333332848,175.4312797111852 112.13139158574631,176.90756667060487 105.33333333332848,178.90051541200228 105.94498381874291,178.37328461540164 109.44886731391307,176.45413826886943 110.82944983817288,176.6755803336564 111.40614886728872,176.91811148983834 111.91294498380739,176.91811148983834 113.45080906146904,175.8636234154983 120.23139158573758,172.6473579943995 120.16148867314041,174.29241311996157 120.32750809060235,175.12547436559544 121.23624595465662,174.93566362517595 122.7042071197211,174.26077772984718 124.12847896438325,173.8706069982436 125.24692556631635,174.42949968112225 125.84983818768524,175.06220416356518 126.58381877020292,175.36800972546916 127.07313915855775,175.8003537356417 127.88576051776181,175.8003537356417 130.0352750808961,174.86184822842915 130.91779935272643,174.14478120367858 133.8537216828263,172.49972336235078 134.16828478962998,172.70008458962548 134.48284789643367,172.65790331591415 135.5226537216513,172.17281723827182 135.83721682845498,171.58227411386179 135.88964401293197,170.35899380710907 135.74983818767942,169.82116699686594 135.21682847895136,169.43097689413844" stroke="#4dd2ff" stroke-linecap="round" stroke-linejoin="round" stroke-width="0.5"><title>2022-01-08 9.4km</title></polyline><polyline fill="none" points="154.8153569160786,152.9262117994076 154.99729273183038,152.0 154.74538160234806,152.5220473823574 154.8993272925727,153.68401702752453 153.96165808831574,156.9509539660503 155.61307549281628,158.02869011955045 155.2072186730511,160.58828119785176 155.52910511632217,161.05977986150538 155.58508536734735,162.03645076016255 156.25684837935842,162.74369107425446 156.98459164236556,164.37706616154173 157.22250770911342,168.6709021098941 157.81030034460127,168.8561235290981 163.56227113492787,167.8121451487823 164.66788109217305,168.06472125643631 164.66788109217305,170.33788631820062 165.45160460620536,171.76912001121673 165.54957004546304,173.4192306400655 167.04704175973893,174.44633078356856 167.60684426972875,175.52393618560745 168.58649866224732,175.87752370361704 169.80406912148464,175.81017376703676 170.13995062751928,177.05614250300277 171.16159020829946,177.81382093057618 172.75702736177482,178.13372840496595 175.36010903329588,177.81382093057618 177.26343756733695,179.19446916377638 179.15277103861445,179.04293524728564 180.8461736313766,179.37967706769996 183.44925530292676,181.56847973661206 183.67317630688194,182.29246100121236 183.4772454283957,182.7638887083158 184.16300350317033,184.19499909487786 184.2189837541664,184.8179485921719 184.72280601316015,185.0704949192732 184.89074676617747,185.94598542968743 185.98236166068818,186.60259982531716 185.98236166068818,187.57909775759617 185.926381409663,186.6194360525551 184.8347665151814,185.9123128160718 184.73680107592372,185.0536585111986 184.260968942428,184.767439273739 184.1350133776432,184.04347043197777 183.42126517739962,182.66286861506524 183.70116643240908,182.34297118641553 183.5192306166573,181.8547053220973 182.46960091034998,180.8276579365629 182.063744090643,180.23836515113362 180.60825756462873,179.3460029210255 179.48865254461998,179.00926102200174 177.0255215005891,179.02609813565505 175.08020777831553,177.69596010328678 172.7710224245384,178.1000539673696 170.6997531375382,177.66228556355054 170.3078913804784,177.25819047288678 169.74808887048857,176.36580980339204 169.45419255274464,175.27137314187712 169.2582616742293,171.49971240128798 168.57250359948375,171.31449437751144 168.04069121496286,171.70176815592276 167.6348343952268,171.60074031399563 168.40456284649554,171.533388380034 168.88039497999125,170.43891504481144 167.90074058747268,168.1152364248701 168.51652334848768,167.00389863128657 171.32953096125857,166.498742257274 169.10431598397554,166.80183629402018 168.62848385047982,167.37434551412298 169.80406912148464,169.61384503940644 169.70610368225607,171.14611414949468 169.35622711348697,172.12271673543728 169.37022217622143,173.63812144794792 170.0419851882616,177.0224678137747 170.6577679492766,177.67912283439364 171.37151614952018,178.01586783905805 173.00893849125714,178.1505656207737 175.4440794098191,177.7969836754637 177.17946719084284,179.09344657049223 179.20875128961052,178.95874966932752 180.69222794115194,179.29549168629455 183.40727011463605,181.53480610094266 183.70116643240908,182.27562426886288 183.5192306166573,182.84807206528785 184.14900844037766,184.07714348188892 184.27496400516247,184.86845789296785 184.7927813269198,185.01998568925774 185.01670233093319,186.09751209398382 185.91238634692854,186.63627227785764 186.03834191171336,188.0 185.85640609593247,186.60259982531716 184.89074676617747,185.9796580355178 184.66682576216408,184.96947644148895 184.28895906789694,184.88529432265204 184.14900844037766,184.06030695789377 183.43526024013408,182.71337867050897 183.70116643240908,182.44399150364916 183.5612158049189,181.93888920967584 183.04339848316158,181.23174302648113 180.77619831758784,179.46386239993444 179.2227463523741,179.1271207760583 177.12348693981767,179.1271207760583 175.1781732175732,177.78014641837217 172.72903723627678,178.2179144644615 171.46948158874875,178.01586783905805 170.54580744722625,177.5949364603439 169.48218267824268,175.87752370361704 168.44654803475714,175.99538601697714 167.74679489724804,175.57444874121575 167.38292326571536,174.91778413772408 165.60555029643,173.11615051145782 165.3956243552093,171.70176815592276 164.66788109217305,170.32104819020606 164.52793046468287,168.06472125643631 163.05844887593412,167.84582198865246 157.51640402685734,168.906638420347 157.20851264634985,168.45200376231514 157.39044846210163,167.64376083119714 157.0125817678636,166.48190368103678 157.3624583365745,164.68016465801338 155.9069718105602,162.13748530313023 155.54310017905664,160.21781688049668 155.5570952418493,158.39916006168642 153.96165808831574,156.6478392213612 154.03163340207539,155.87320975640614 154.82935197881307,154.10501821087382 154.157588966802,155.58693259648862 154.03163340207539,156.9172745814285 155.50111499085324,158.3318019612343 155.3891544888029,160.01574503340817 155.8649866223277,162.03645076016255 157.23650277187699,164.42758262189454 156.970596579602,166.48190368103678 157.30647808560752,167.40802245627856 157.2784879601095,168.6877404305851 157.8382904700993,168.9908298663795 163.31036000541644,167.79530672587862 164.48594527642126,168.04788286301482 164.65388602943858,170.45575315905444 165.33964410421322,171.58390233345563 165.7455009239493,173.55393271501816 167.43890351671143,174.91778413772408 167.6348343952268,175.47342361223127 168.06868134049,175.84384873924137 169.63612836849643,175.89436118281446 170.16794075298822,177.1740038531716 170.82570870223572,177.7969836754637 172.2392100400175,178.16740283467516 173.38680518555338,178.11689118712093 172.0152890360332,178.1505656207737 170.58779263551696,177.66228556355054 169.55215799197322,175.9280361354322 168.78242954073357,176.04589840755216 167.92873071297072,175.82701125412132 167.07503188520786,174.48000607425638 165.9134416769375,173.68863466412586 165.57756017096108,173.16666391048057 165.42361448067822,171.81963388205622 164.72386134316912,170.4894293816178 164.48594527642126,169.00766814965755 164.62589590394055,168.31729692174122 164.34599464893108,167.99736767094873 163.6742316368909,167.91317564494966 164.56991565294447,168.28362019191263 164.6398909666459,170.32104819020606 165.46559966893983,171.51655039166508 165.73150586121483,173.4865816932579 168.51652334848768,175.97854854955222 169.5661530547368,175.75966129392327 169.4262024272466,174.24427887429192" stroke="#4dd2ff" stroke-linecap="round" stroke-linejoin="round" stroke-width="0.5"><title>2022-01-01 17.2km</title></polyline><polyline fill="none" points="43.742824339831714,202.21848408900405 43.742824339831714,201.7071501123355 44.01148105626635,201.6073773407261 44.24913892080076,201.09604040853446 44.920780711850966,200.4350402216878 45.45809414467658,200.62211616557033 46.02640642938786,201.34547336733522 46.80137772676244,201.03368207689346 47.13203214696841,201.3828882603775 46.62571756602847,202.0937687129408 45.375430539628724,202.65498674666014 45.25143513204239,204.00189787356067 44.42479908152018,205.16172426177945 44.672789896678296,206.15941420179297 45.4890929965768,206.52107448030438 45.54075774973899,206.9326174304515 45.90241102184518,207.34415877888387 46.71871412170003,207.7806402769129 46.83237657867721,208.2794740685058 47.4833524684509,208.60371477116132 47.83467278991884,209.07760324037372 47.783008036756655,211.2100750717509 46.780711825500475,212.10794508324034 46.24339839266031,212.2575893439789 45.66475315731077,212.1204154463776 42.637198622265714,213.67919926000468 41.211251435132,214.8139794247254 38.05970149252971,216.03603675420163 37.016073478764156,215.32525002554758 36.46842709531484,215.2504300920118 35.920780711850966,214.58951838014764 34.339839265230694,213.61684834858897 33.07921928817814,213.87872192944633 29.38002296212653,215.31278004032356 28.326061997693614,215.02596997382352 27.21010332950391,215.2753700757239 26.62112514351611,215.21302010539512 25.7221584385843,215.64946912590676 25.091848450072575,215.2753700757239 22.539609644081793,215.61205928045092 20.44202066589787,216.95880538061465 19.636050516652176,217.27054971869075 17.507462686568033,216.67199977793643 15.998851894357358,216.55977128691302 15.285878300812328,216.90892620119848 15.554535017217859,216.68446960290748 16.30884041330137,216.72187906904583 16.174512055091327,217.14585209373763 13.663605051668128,218.11848966955586 12.0,219.5649597783122 13.436280137771973,218.21824686387117 16.050516647534096,217.35783796873147 16.608495981636224,216.7842281498888 17.96211251434579,216.88398660271196 19.047072330635274,217.32042872752936 19.543053960980615,217.3328984760592 22.41561423651001,215.6369991788597 25.69115958668408,215.66193907144043 26.342135476472322,215.30031005357887 27.954075774978264,215.1132600763667 28.946039035596186,215.37512995183351 30.537313432840165,215.00102993124892 32.01492537315062,214.22788569523254 33.947187141224276,213.74155013466225 34.89781859931827,214.0034234066843 36.11710677383235,215.12573008515028 36.76808266362059,215.33772000930185 37.45005740527995,215.91133767364227 38.55568312287505,215.93627750150335 41.18025258326088,214.8887996670237 42.80252583237598,213.6417887175703 44.982778415622306,212.51946629075246 45.80941446614452,212.1578265270291 46.65671641792869,212.20770794725104 47.33869115958805,211.9333598446974 47.89667049370473,211.34725015024742 48.0,209.67619616602315 47.83467278991884,208.92795447954995 47.576349024122464,208.55383165083185 46.915040183710516,208.30441569632967 46.677382319190656,207.61851878798916 45.74741676234407,207.10721092538734 45.437428243414615,206.44624831728288 44.94144661309838,206.23424056778458 44.41446613091102,205.19913780444767 44.9724454649986,204.72523195281246 45.199770378894755,204.23885268588492 45.241102181433234,203.02913044748857 46.50172215845669,202.25589867312374" stroke="#4dd2ff" stroke-linecap="round" stroke-linejoin="round" stroke-width="0.5"><title>2021-12-25 10.0km</title></polyline><polyline fill="none" points="89.92238936125068,202.1502164134654 89.76934815784625,201.65290259275207 90.18138216697844,201.42555844796152 90.46391977327585,200.8145689328012 91.29976019186142,200.20357631846127 91.73533900153416,200.3172495976687 92.04142140832846,201.07033236283314 92.58295182035363,201.6102755982647 93.27752343578322,201.42555844796152 93.7366470459965,201.72394754998822 93.78373664706305,201.59606659677956 92.86548942662193,202.4912304181853 91.75888380203105,202.86066116716393 91.27621539132087,204.0684076323014 90.65227817744017,203.9973640577955 91.111401787668,204.29574678919016 91.35862219314731,204.21049465562828 91.4292565946962,204.45204221070162 91.15849138870544,205.24772484882124 90.52278177457629,205.8586918787987 91.09962938741955,207.08061664293928 91.82951820360904,207.32215844308666 91.92369740571303,207.87628191943804 93.28929583604622,208.7571909171238 93.30106823629467,209.2970996996737 94.52539786353009,210.00750230609265 94.66666666667152,210.71790072345175 94.4665358622151,212.32338571572473 94.21931545672123,212.99114751003071 93.51297144104319,213.48841452706984 92.7830826247955,213.72994348049542 91.88838020492403,213.58786768419668 88.29779812513152,215.69057236120716 87.15587529978075,216.6424603850901 83.52997601917014,218.2336593939981 82.84717680398899,218.13421007157012 82.16437758883694,217.53751241322607 81.4227163723408,217.43806251621572 80.53978635273234,216.41514452558476 78.87987791585329,215.4206325976702 76.52539786351554,216.10258451849222 74.91257902767393,216.96922618182725 74.08851100935135,217.08288364254258 73.05253978633846,217.56592665444623 72.26378896881943,217.23916247591842 70.60388053192582,217.42385538135568 70.15652932200464,217.2249553176589 69.37955090471951,217.76482615530404 68.7438412906049,217.75061905901384 67.91977327228233,217.40964824485854 65.4357968170807,217.75061905901384 62.53978635274689,219.61173441278515 61.91584913888073,219.66856191022816 58.66666666667152,218.91559539379523 60.067582297793706,219.1144926667621 61.904076738632284,219.79642368153873 62.44560715062835,219.66856191022816 62.869413560052635,219.24235502598458 65.23566601263883,217.90689702633244 66.13036843249574,217.89268994676968 66.55417484192003,217.6653764459188 67.36647045999416,218.00634653637826 69.03815129712166,217.97793239904422 69.95639851756277,217.45226964938047 71.7693481578317,217.31019824231043 73.33507739263587,217.5090981653193 77.05515587529226,215.93209690015647 78.50316110748099,215.63374298754206 80.53978635273234,216.45776628189924 81.36385437105491,217.39544110668794 82.02310878569551,217.5090981653193 83.00021800739341,218.26207347104355 83.63592762152257,218.26207347104355 86.97928929582122,216.7561181540368 87.88576411597023,215.88947495785396 90.20492696751899,214.46873492073792 91.61761499891873,213.75835861967062 92.05319380859146,213.72994348049542 93.28929583604622,213.58786768419668 94.18399825594679,213.16163928995957 94.4312186614261,212.72120169841946 94.60780466535653,210.85997990422766 94.47830826246354,210.24903823798377 94.1133638543688,209.76596588992834 93.4423370394652,209.51022092146013 93.28929583604622,209.01293748416356 93.28929583604622,209.4249724779802 93.23043383474578,208.7713990739794 92.33573141487432,208.38777825068973 91.75888380203105,207.30795011531154 91.04076738609001,207.06640828664968 90.53455417482473,205.91552586360194" stroke="#4dd2ff" stroke-linecap="round" stroke-linejoin="round" stroke-width="0.5"><title>2021-12-11 8.6km</title></polyline><polyline fill="none" points="107.06436263461364,216.46097698123776 111.74355121460394,216.72135263116797 113.69095917855157,215.41947194788372 114.50237916354672,211.09067493205657 115.47608314553509,209.49583802380948 116.34159779609763,204.0928532925027 118.26195842726156,201.78190614125924 119.45204107186873,197.84348724220763 120.75031304784352,196.8995603910589 122.64362634613644,199.21054804546293 124.91560230404139,200.7728950343735 125.1860756323731,201.68426006479422 126.646631605312,202.49797632236732 132.24542950166506,203.6046266183257 134.3551214625768,202.5305249232042 135.84272476835758,200.9030902213708 137.4655647383188,201.39132163018803 138.81793137989007,203.05130201991415 141.14400200353703,206.37123312510084 141.33333333334303,212.29493348646793 140.7382920110249,214.47560464820708 138.79088404710637,216.16805408411892 137.87127473080182,218.8694424588466 129.02679689455545,219.65056192621705 123.02228900574846,199.24309703049948 127.64738292011316,203.01875347984605 132.21838216879405,203.37678721090197 133.1109441522858,203.93011116291746 133.1920861507533,205.72026936005568 132.11019283745554,208.09627974609612 131.00125219134497,208.90997727480135 126.48434760828968,208.16137563585653 120.77736038062721,208.87742941931356 119.34385174050112,208.58449854847277 117.93739043327514,207.25003179506166 116.36864512902685,210.37462683737976 114.58352116204333,212.19729109489708 115.44903581263497,209.1052643280418 116.04407713498222,203.7673689381918 117.36939644382801,201.19602916928125 118.42424242422567,197.61564312272822 119.53318307030713,196.47641972985002 125.80816428753315,201.2936754169059 126.05159028299386,202.10739281540737 127.72852491860976,203.05130201991415 131.2446781868639,202.88855928185512 132.9757074881345,203.79991739068646 133.1920861507533,205.62262466415996 132.54295016278047,206.6316182051669 133.43551214627223,209.1378121569869 133.0568494866311,211.87181620922638 130.97420485853218,216.46097698123776 129.7029802153993,217.95813364555943 128.0801402454672,218.73925566798425 120.15527172552538,217.82794642887893 118.12672176308115,217.9906804402999 117.3153017781151,218.83689576678444 116.90959178560297,220.59441169421189 115.20560981720337,223.52358027017908 113.44753318303265,222.84011035691947 110.52642123715486,218.706708960759 108.68720260457485,218.18596112835803 106.2258953168348,218.4137884247466 105.33333333334303,216.72135263116797 105.84723265719367,216.33078906487208 112.41973453541868,216.98172803779016 113.66391184573877,216.49352395074675 114.47533183073392,214.24777413133415 114.82694715756224,211.1557701221609 115.7195091409958,209.91895890969317 115.31379914851277,207.9986358829774 115.7465564738668,204.32069211432827 118.23491109439055,201.94464952580165 119.34385174050112,197.42034801485715 120.31755572248949,196.964658897341 120.99373904336244,197.1925035493041 122.75181567744585,199.37329293240327 125.83521162034594,201.35877289625932 126.24092161282897,202.20503874355927 127.59328825445846,203.05130201991415 129.35136488857097,203.11639908855432 130.62258953170385,203.8650142844126 131.21763085396378,203.4744326940272 132.8404708239541,203.96265959646553 133.21913348359521,203.66972355771577 133.54370147758164,204.97165914977086 132.65113949408988,205.42733516960288 132.7593288254575,206.76181065407582 132.00200350614614,208.87742941931356 131.13648885549628,209.33309905044734 128.97270222892985,208.87742941931356 120.23641372399288,209.1378121569869" stroke="#4dd2ff" stroke-linecap="round" stroke-linejoin="round" stroke-width="0.5"><title>2021-11-08 9.5km</title></polyline><polyline fill="none" points="177.06806282745674,201.83529750118032 156.14659685851075,205.01047409465536 152.3769633511547,210.00002682302147 153.50785340368748,216.57714491942897 159.72774869087152,219.97909381368663 182.15706806303933,217.9379251919454 187.43455497385003,208.18564549658913 181.40314136166126,202.74249134317506 158.03141361265443,204.33007954759523 153.13089005253278,212.72159563412424 154.45026178029366,216.80394169793 161.98952879593708,219.97909381368663 182.9109947644174,218.6183149709832 187.8115183247719,212.49479837878607 181.59162303665653,202.96928973775357 157.4659685867373,204.10328131192364 152.94240837707184,214.76276973844506 158.97382198949344,220.2058901943965 184.2303664921783,218.84511151129846 186.68062827223912,208.4124432549579 184.79581151832826,204.10328131192364 179.32984293205664,202.96928973775357 158.21989528811537,203.64968476223294 153.31937172776088,208.8660386923002 153.31937172776088,214.76276973844506 159.72774869087152,220.2058901943965 181.78010471188463,219.7522974057356 188.0,210.68041938298848 186.68062827223912,206.37126247398555 180.27225130912848,202.51569292298518 158.40837696334347,203.42288644693326 152.5654450263828,213.8555815127911 158.97382198949344,219.7522974057356 183.6649214657955,218.84511151129846 187.24607329862192,208.8660386923002 181.40314136166126,203.42288644693326 157.4659685867373,203.64968476223294 152.5654450263828,209.09283637127373 152.3769633511547,214.3091756788781 159.72774869087152,220.2058901943965 183.09947644011118,219.52550097205676 187.62303664931096,210.90721685055178 182.9109947644174,203.87648305029143 158.03141361265443,204.10328131192364 152.0,210.22682436928153 153.31937172776088,216.80394169793 157.27748691104352,219.7522974057356 182.53403141372837,219.07190802448895 187.43455497385003,211.81440645363182 181.40314136166126,202.96928973775357 159.35078534064814,203.64968476223294 153.69633507868275,207.95884771132842 152.5654450263828,213.8555815127911 159.5392670154106,219.7522974057356 182.7225130891893,219.07190802448895 187.43455497385003,210.22682436928153 181.02617801050656,202.96928973775357 157.84293193696067,204.10328131192364 152.5654450263828,210.00002682302147 152.75392670137808,214.53597272199113 158.78534031426534,219.7522974057356 183.85340314172208,218.6183149709832 187.24607329862192,209.54643165005837 180.27225130912848,203.42288644693326 157.65445026173256,204.33007954759523 153.13089005253278,214.08237860864028 158.59685863927007,219.7522974057356 184.2303664921783,218.6183149709832 187.43455497385003,210.22682436928153 179.89528795797378,203.42288644693326 156.9005235603545,205.23727222462185 153.31937172776088,215.4431606301805 159.91623036679812,220.2058901943965 183.09947644011118,218.84511151129846 186.86910994746722,209.31963402417023 182.7225130891893,203.87648305029143 176.31413612607867,202.51569292298518 159.16230366495438,204.33007954759523 153.50785340368748,214.3091756788781 161.0471204186324,219.97909381368663 183.09947644011118,219.29870451102033 187.43455497385003,211.13401429110672 179.89528795797378,202.96928973775357 157.84293193696067,204.10328131192364 152.94240837707184,210.22682436928153 153.69633507868275,214.53597272199113 160.10471204202622,219.52550097205676 183.6649214657955,218.3915184047073 186.86910994746722,209.54643165005837 181.2146596859675,203.42288644693326 158.97382198949344,203.87648305029143 152.94240837707184,211.13401429110672 160.10471204202622,219.7522974057356 183.09947644011118,218.3915184047073 187.24607329862192,212.26800109737087 181.78010471188463,204.33007954759523 158.78534031426534,204.55687775625847 153.13089005253278,212.26800109737087 158.78534031426534,219.7522974057356 181.9685863875784,218.84511151129846 187.05759162339382,210.68041938298848 180.46073298435658,203.64968476223294 158.03141361265443,204.55687775625847 153.50785340368748,214.3091756788781 158.78534031426534,219.29870451102033 181.2146596859675,219.29870451102033 187.05759162339382,211.36081170546822 179.89528795797378,203.87648305029143 158.21989528811537,204.7836759389611 153.69633507868275,214.76276973844506 161.98952879593708,219.97909381368663 183.85340314172208,218.1647218116559 186.68062827223912,208.4124432549579 181.2146596859675,203.64968476223294 156.5235602091998,204.7836759389611 153.31937172776088,215.216363692889 159.5392670154106,219.97909381368663 182.9109947644174,218.84511151129846 187.24607329862192,210.68041938298848 181.40314136166126,203.42288644693326 158.78534031426534,204.55687775625847 153.31937172776088,212.72159563412424 161.0471204186324,219.7522974057356 182.7225130891893,217.9379251919454 187.05759162339382,209.54643165005837 180.27225130912848,204.10328131192364 156.5235602091998,205.9176664535189 154.07329842960462,214.9895667290548 159.5392670154106,219.29870451102033 183.6649214657955,217.71112854615785 186.86910994746722,213.4019872401841 185.1727748690173,205.9176664535189 174.8062827223912,202.74249134317506 175.74869109946303,199.7941098056035 157.27748691104352,205.46407032734714 154.45026178029366,214.53597272199113 160.6701570681762,219.07190802448895 184.0418848162517,218.1647218116559 187.05759162339382,211.13401429110672 179.89528795797378,204.33007954759523 158.03141361265443,205.6908684031805 153.69633507868275,211.81440645363182 154.63874345528893,215.66995754092932 161.4240837697871,219.7522974057356 183.4764397908002,218.84511151129846 187.24607329862192,211.36081170546822 180.0837696334347,204.55687775625847 159.16230366495438,205.01047409465536 154.63874345528893,207.50525206152815 153.50785340368748,213.17519006470684 159.16230366495438,218.84511151129846 175.74869109946303,218.84511151129846" stroke="#4dd2ff" stroke-linecap="round" stroke-linejoin="round" stroke-width="0.5"><title>2021-10-02 9.4km</title></polyline><polyline fill="none" points="19.252961210906506,235.22109337814618 25.062171366997063,267.8105289347004 39.73042701091617,268.0 40.747038789093494,262.3158559752628 37.11628244072199,257.38957764883526 38.42335472628474,237.68427702912595 34.06644710898399,233.13685740053188 25.64309238176793,235.7895207904512 24.190789843909442,254.92643146123737 28.983388222754,260.6106079048477 37.406742949038744,256.25274152867496 35.95444040931761,235.97899653937202 33.19506558589637,233.13685740053188 27.531085683964193,234.084237806499 25.933552890084684,237.87375250062905 25.062171366997063,256.06326874520164 31.016611776314676,260.8000800239388 37.842433710582554,257.7685228000628 37.406742949038744,236.73689925612416 34.21167736314237,234.27371380419936 25.20740162022412,234.65266571682878 23.464638574048877,251.89486049453262 28.11200669873506,260.0421913829632 33.19506558589637,261.55796822102275 35.95444040931761,258.715885194717 37.55197320319712,239.2000800250098 34.502137870527804,234.65266571682878 28.838157968595624,234.084237806499 25.64309238176793,236.5474236186128 25.062171366997063,258.905357590178 31.74276304617524,261.93691215408035 38.278124472126365,257.95799533464015 36.971052187494934,238.2527033603983 31.307072285562754,233.8947617803933 25.933552890084684,235.60004501382355 24.771710858680308,239.2000800250098 24.62648060452193,257.57905023836065 31.45230253878981,260.98955211462453 38.13289421796799,258.5264127708506 36.825821933336556,236.92637486581225 28.11200669873506,233.13685740053188 24.62648060452193,241.85273100004997 25.062171366997063,259.2843022986781 33.77598660066724,261.55796822102275 37.69720345642418,257.57905023836065 36.971052187494934,238.63165410945658 33.485526093281806,234.27371380419936 27.96677644457668,233.8947617803933 25.933552890084684,235.97899653937202 24.771710858680308,258.5264127708506 33.485526093281806,261.7474402007647 37.11628244072199,260.23166358447634 38.278124472126365,256.4422142842086 36.24490091763437,237.30532600334845 32.614144570194185,232.94738123647403 27.240625174716115,232.94738123647403 24.481250351294875,246.58959423343185 25.78832263685763,260.0421913829632 36.825821933336556,260.0421913829632 38.13289421796799,245.0737998833647 34.21167736314237,234.46318977489136 28.838157968595624,232.75790504494216 25.497862128540874,235.41056921018753 23.3194083198905,242.2316806963645 26.65970415994525,259.2843022986781 35.80921015609056,261.1790241783019 38.56858498044312,255.87379593367223 39.00427574198693,244.31590204313397 35.80921015609056,233.32633353758138 30.580921014770865,232.0 26.07878314424306,234.65266571682878 24.336020097136497,254.54748547833879 28.11200669873506,260.98955211462453 34.06644710898399,261.1790241783019 37.69720345642418,256.8211597130867 37.842433710582554,239.5790304967668 32.033223554492,232.18947630317416 25.20740162022412,235.7895207904512 23.464638574048877,245.4527486372972 27.240625174716115,260.6106079048477 36.09967066347599,260.0421913829632 38.42335472628474,249.43170386075508 36.68059167917818,234.84214163199067 31.88799330033362,232.0 26.804934414103627,233.70528572727926 24.481250351294875,241.6632561107399 26.22401339840144,259.2843022986781 31.597532792948186,261.7474402007647 37.98766396474093,258.14746784151066 38.56858498044312,246.40012003679294 34.79259837884456,234.084237806499 28.983388222754,232.75790504494216 24.62648060452193,235.7895207904512 24.771710858680308,257.38957764883526 31.161842031404376,261.7474402007647 38.278124472126365,256.25274152867496 36.825821933336556,237.68427702912595 28.54769746027887,233.51580964645837 24.336020097136497,239.3895552746253 25.497862128540874,257.0106323864311 33.77598660066724,260.8000800239388 38.278124472126365,255.3053773328429 37.55197320319712,236.92637486581225 32.17845380771905,232.0 24.481250351294875,236.73689925612416 24.771710858680308,256.25274152867496 32.75937482342124,261.1790241783019 36.53536142595112,260.23166358447634 37.69720345642418,257.0106323864311 36.39013117086142,235.60004501382355 27.240625174716115,232.94738123647403 23.464638574048877,237.87375250062905 24.771710858680308,256.06326874520164 30.0,261.1790241783019 37.55197320319712,257.20010503113735 36.825821933336556,237.30532600334845 30.87138152308762,232.18947630317416 23.900329335592687,234.65266571682878 26.22401339840144,259.47377461148426 31.45230253878981,261.1790241783019 36.68059167917818,258.905357590178 36.39013117086142,245.83169728016946" stroke="#4dd2ff" stroke-linecap="round" stroke-linejoin="round" stroke-width="0.5"><title>2015-03-21 7.6km</title></polyline></svg>